<?xml version="1.0" encoding="UTF-8" standalone="no"?>
<!-- Created with Inkscape (http://www.inkscape.org/) -->

<svg
   width="210mm"
   height="297mm"
   viewBox="0 0 210 297"
   version="1.1"
   id="svg5"
   xml:space="preserve"
   sodipodi:docname="logo.svg"
   inkscape:version="1.2.2 (b0a84865, 2022-12-01)"
   inkscape:export-filename="logo.png"
   inkscape:export-xdpi="300"
   inkscape:export-ydpi="300"
   xmlns:inkscape="http://www.inkscape.org/namespaces/inkscape"
   xmlns:sodipodi="http://sodipodi.sourceforge.net/DTD/sodipodi-0.dtd"
   xmlns="http://www.w3.org/2000/svg"
   xmlns:svg="http://www.w3.org/2000/svg"><sodipodi:namedview
     id="namedview7"
     pagecolor="#ffffff"
     bordercolor="#000000"
     borderopacity="0.25"
     inkscape:showpageshadow="2"
     inkscape:pageopacity="0.0"
     inkscape:pagecheckerboard="0"
     inkscape:deskcolor="#d1d1d1"
     inkscape:document-units="mm"
     showgrid="false"
     inkscape:zoom="1.7122194"
     inkscape:cx="386.04865"
     inkscape:cy="644.77718"
     inkscape:window-width="3812"
     inkscape:window-height="2074"
     inkscape:window-x="1526"
     inkscape:window-y="44"
     inkscape:window-maximized="0"
     inkscape:current-layer="g8334" /><defs
     id="defs2"><inkscape:path-effect
       effect="mirror_symmetry"
       start_point="48.582773,186.37676"
       end_point="48.582773,206.73379"
       center_point="48.582773,196.55527"
       id="path-effect4821"
       is_visible="true"
       lpeversion="1.2"
       lpesatellites=""
       mode="free"
       discard_orig_path="false"
       fuse_paths="false"
       oposite_fuse="false"
       split_items="true"
       split_open="false"
       link_styles="false" /><inkscape:path-effect
       effect="mirror_symmetry"
       start_point="48.582773,186.37676"
       end_point="48.582773,206.73379"
       center_point="48.582773,196.55527"
       id="path-effect4811"
       is_visible="true"
       lpeversion="1.2"
       lpesatellites=""
       mode="free"
       discard_orig_path="false"
       fuse_paths="false"
       oposite_fuse="false"
       split_items="true"
       split_open="false"
       link_styles="false" /><inkscape:path-effect
       effect="mirror_symmetry"
       start_point="48.582773,186.37676"
       end_point="48.582773,206.73379"
       center_point="48.582773,196.55527"
       id="path-effect4803"
       is_visible="true"
       lpeversion="1.2"
       lpesatellites=""
       mode="free"
       discard_orig_path="false"
       fuse_paths="false"
       oposite_fuse="false"
       split_items="true"
       split_open="false"
       link_styles="false" /><inkscape:perspective
       sodipodi:type="inkscape:persp3d"
       inkscape:vp_x="0 : 148.5 : 1"
       inkscape:vp_y="0 : 1000 : 0"
       inkscape:vp_z="210 : 148.5 : 1"
       inkscape:persp3d-origin="105 : 99 : 1"
       id="perspective4661" /><inkscape:path-effect
       effect="mirror_symmetry"
       start_point="48.582773,186.37676"
       end_point="48.582773,206.73379"
       center_point="48.582773,196.55527"
       id="path-effect2341"
       is_visible="true"
       lpeversion="1.2"
       lpesatellites="#path323"
       mode="free"
       discard_orig_path="false"
       fuse_paths="false"
       oposite_fuse="false"
       split_items="true"
       split_open="false"
       link_styles="false" /><inkscape:path-effect
       effect="mirror_symmetry"
       start_point="48.582773,186.37676"
       end_point="48.582773,206.73379"
       center_point="48.582773,196.55527"
       id="path-effect4821-7"
       is_visible="true"
       lpeversion="1.2"
       lpesatellites=""
       mode="free"
       discard_orig_path="false"
       fuse_paths="false"
       oposite_fuse="false"
       split_items="true"
       split_open="false"
       link_styles="false" /><inkscape:path-effect
       effect="mirror_symmetry"
       start_point="48.582773,186.37676"
       end_point="48.582773,206.73379"
       center_point="48.582773,196.55527"
       id="path-effect4811-9"
       is_visible="true"
       lpeversion="1.2"
       lpesatellites=""
       mode="free"
       discard_orig_path="false"
       fuse_paths="false"
       oposite_fuse="false"
       split_items="true"
       split_open="false"
       link_styles="false" /><inkscape:path-effect
       effect="mirror_symmetry"
       start_point="48.582773,186.37676"
       end_point="48.582773,206.73379"
       center_point="48.582773,196.55527"
       id="path-effect4803-9"
       is_visible="true"
       lpeversion="1.2"
       lpesatellites=""
       mode="free"
       discard_orig_path="false"
       fuse_paths="false"
       oposite_fuse="false"
       split_items="true"
       split_open="false"
       link_styles="false" /><inkscape:path-effect
       effect="mirror_symmetry"
       start_point="48.582773,186.37676"
       end_point="48.582773,206.73379"
       center_point="48.582773,196.55527"
       id="path-effect2341-9"
       is_visible="true"
       lpeversion="1.2"
       lpesatellites=""
       mode="free"
       discard_orig_path="false"
       fuse_paths="false"
       oposite_fuse="false"
       split_items="true"
       split_open="false"
       link_styles="false" /></defs><g
     inkscape:label="Layer 1"
     inkscape:groupmode="layer"
     id="layer1"><path
       style="fill:#ff0000;fill-opacity:0.944444;stroke:none;stroke-width:0.647491;stroke-linecap:square;stroke-linejoin:round;stroke-dasharray:0.647491, 1.29498;paint-order:fill markers stroke;stop-color:#000000"
       d=""
       id="path2079" /><g
       sodipodi:type="inkscape:box3d"
       id="g4663"
       style="fill:#000000;fill-opacity:0;stroke:#000000;stroke-width:3.70016;stroke-linecap:square;stroke-linejoin:round;stroke-dasharray:none;paint-order:fill markers stroke;stop-color:#000000"
       inkscape:perspectiveID="#perspective4661"
       inkscape:corner0="-0.054369023 : -0.070222053 : 0 : 1.054369"
       inkscape:corner7="2.9505521 : -0.39837092 : 0.25 : 1"
       inkscape:transform-center-x="3.7750089"
       inkscape:transform-center-y="74.344853"><path
         sodipodi:type="inkscape:box3dside"
         id="path4675"
         style="fill:#e9e9ff;fill-rule:evenodd;stroke:none;stroke-linejoin:round"
         inkscape:box3dsidetype="11"
         d="M 131.42145,245.37723 37.495072,176.13947 v 78.98245 l 93.926378,267.09137 z"
         points="37.495072,176.13947 37.495072,255.12192 131.42145,522.21329 131.42145,245.37723 " /><path
         sodipodi:type="inkscape:box3dside"
         id="path4665"
         style="fill:#353564;fill-rule:evenodd;stroke:none;stroke-linejoin:round"
         inkscape:box3dsidetype="6"
         d="m 110.70875,270.91332 v 349.8079 l 20.7127,-98.50793 V 245.37723 Z"
         points="110.70875,620.72122 131.42145,522.21329 131.42145,245.37723 110.70875,270.91332 " /><path
         sodipodi:type="inkscape:box3dside"
         id="path4673"
         style="fill:#afafde;fill-rule:evenodd;stroke:none;stroke-linejoin:round"
         inkscape:box3dsidetype="13"
         d="M 110.70875,620.72122 26.578564,261.8692 37.495072,255.12192 131.42145,522.21329 Z"
         points="26.578564,261.8692 37.495072,255.12192 131.42145,522.21329 110.70875,620.72122 " /><path
         sodipodi:type="inkscape:box3dside"
         id="path4667"
         style="fill:#4d4d9f;fill-rule:evenodd;stroke:none;stroke-linejoin:round"
         inkscape:box3dsidetype="5"
         d="m 110.70875,270.91332 -84.130186,-93.02476 10.916508,-1.74909 93.926378,69.23776 z"
         points="26.578564,177.88856 37.495072,176.13947 131.42145,245.37723 110.70875,270.91332 " /><path
         sodipodi:type="inkscape:box3dside"
         id="path4671"
         style="fill:#d7d7ff;fill-rule:evenodd;stroke:none;stroke-linejoin:round"
         inkscape:box3dsidetype="14"
         d="m 26.578564,177.88856 v 83.98064 l 10.916508,-6.74728 v -78.98245 z"
         points="26.578564,261.8692 37.495072,255.12192 37.495072,176.13947 26.578564,177.88856 " /><path
         sodipodi:type="inkscape:box3dside"
         id="path4669"
         style="fill:#8686bf;fill-rule:evenodd;stroke:none;stroke-linejoin:round"
         inkscape:box3dsidetype="3"
         d="M 110.70875,270.91332 26.578564,177.88856 v 83.98064 l 84.130186,358.85202 z"
         points="26.578564,177.88856 26.578564,261.8692 110.70875,620.72122 110.70875,270.91332 " /></g><g
       id="g335"
       transform="translate(-20.890521,-58.074011)"
       inkscape:transform-center-x="-17.409148"
       inkscape:transform-center-y="-173.52587"><g
         id="g8334"
         transform="matrix(1.092483,0,0,1.092483,12.191113,35.948632)"
         inkscape:export-filename="logo512.png"
         inkscape:export-xdpi="86.022446"
         inkscape:export-ydpi="86.022446"><g
           id="g368"
           transform="translate(4.1256739,35.951296)"
           inkscape:export-filename="./logo.png"
           inkscape:export-xdpi="800"
           inkscape:export-ydpi="800"><g
             id="g329"
             transform="matrix(1.7642413,-0.00851707,0.00977508,1.5371888,-292.10288,-58.948289)"
             inkscape:export-filename="./logo.png"
             inkscape:export-xdpi="300"
             inkscape:export-ydpi="300"><path
               id="path343"
               style="fill:#a1a1a1;stroke-width:0.264583"
               d="m 249.1497,69.586322 c -2.54906,0 -4.7946,1.171706 -6.14019,3.204972 -0.47901,0.723806 -0.74065,1.552549 -0.84956,2.690792 l -0.1571,1.644861 -20.70364,0.0677 -20.70365,0.0677 -0.003,-1.12603 c -0.005,-2.263014 -2.06685,-5.214647 -4.28863,-6.140193 -1.48381,-0.618237 -3.79221,-0.523367 -5.36608,0.220658 -1.62171,0.766754 -2.56214,1.738958 -3.3569,3.470589 -0.56134,1.22307 -0.61458,1.752274 -0.70228,7.011459 -0.14083,8.442974 0.54293,15.105862 2.204,21.48086 1.52445,5.85062 3.53006,10.44978 6.45645,14.80685 3.00197,4.46898 7.05123,8.72386 11.467,12.04887 0.54289,0.4088 0.95964,0.87841 0.92604,1.04335 -0.0336,0.16494 -1.31113,1.22089 -2.8391,2.34663 -1.52797,1.12574 -4.21075,3.4915 -5.96191,5.25652 -5.82252,5.86964 -9.2793,12.08347 -11.35228,20.40754 -0.93796,3.76648 -1.42424,7.0506 -1.76371,11.90625 -0.38984,5.57637 -0.22967,7.65732 0.72553,9.41235 0.89454,1.64355 2.20155,2.77606 3.80029,3.29334 v 5.2e-4 c 2.71878,0.87941 5.98177,-0.24868 7.59953,-2.62723 0.97939,-1.4399 1.39275,-2.72066 1.39475,-4.32377 l 0.002,-1.12448 6.01927,0.003 c 3.3106,0.002 11.31755,0.18599 17.79323,0.40876 6.47543,0.22277 13.5599,0.37121 15.74271,0.33021 l 3.96875,-0.0744 0.15296,1.5844 c 0.17542,1.81871 0.44554,2.41095 1.76888,3.87573 1.82306,2.01789 4.19169,2.71447 6.72621,1.97766 1.91546,-0.55684 3.66005,-2.09823 4.44779,-3.92844 0.57999,-1.3477 0.5967,-1.59325 0.44752,-6.69055 -0.1615,-5.51879 -0.57526,-9.06875 -1.53531,-13.17749 -1.20216,-5.14514 -3.47302,-10.63787 -5.98258,-14.47147 -2.9734,-4.54217 -6.93702,-8.61128 -12.17135,-12.49433 -1.34913,-1.00079 -2.45308,-1.85876 -2.45308,-1.90686 0,-0.0481 1.04179,-0.92197 2.3151,-1.942 4.51337,-3.61558 8.57624,-8.10529 11.18847,-12.3641 3.59829,-5.86713 6.1146,-13.62556 7.29361,-22.489588 0.57256,-4.304455 0.6812,-16.824122 0.16123,-18.564239 -0.88887,-2.974634 -3.51365,-5.115967 -6.27094,-5.115967 z m -7.20317,19.310966 -0.17622,1.920296 c -0.23579,2.570188 -0.93001,6.531128 -1.24902,7.127218 -0.16503,0.30835 -0.51511,0.46266 -0.97565,0.43046 -1.95446,-0.13678 -19.04183,-0.41025 -27.63036,-0.44235 -8.96231,-0.0335 -9.73278,-0.072 -9.95339,-0.49919 -0.24212,-0.46889 -1.02031,-5.39824 -1.15911,-7.342192 l -0.0754,-1.058333 20.60959,-0.0677 z m -28.29182,20.863842 c 1.89186,-10e-4 4.28841,0.007 7.31325,0.0217 7.78512,0.0373 14.20425,0.11609 14.26425,0.17519 0.14007,0.13777 -0.8972,1.59333 -2.67477,3.75325 -1.58858,1.93024 -5.09722,4.97119 -7.94836,6.88847 -3.13402,2.10793 -2.7582,2.06446 -5.20536,0.59377 -3.47324,-2.08748 -6.29359,-4.22332 -8.75141,-6.62802 -2.32067,-2.27074 -3.59325,-3.7884 -3.75274,-4.4757 -0.0557,-0.24022 1.07979,-0.32557 6.75514,-0.32866 z m 7.67809,28.61686 c 0.58137,0 3.66732,2.00503 7.28534,4.73356 3.60574,2.71901 3.72691,2.81774 3.72691,3.03444 0,0.19349 -1.38725,0.17589 -13.09688,-0.16485 -4.65667,-0.1355 -8.52616,-0.30611 -8.59896,-0.37931 -0.19495,-0.19596 1.71995,-1.81166 3.83646,-3.23649 2.95198,-1.98726 6.38682,-3.98735 6.84713,-3.98735 z m -19.41225,19.37452 19.2474,0.13333 c 10.58564,0.0735 19.32492,0.20886 19.42052,0.30076 0.22867,0.21994 1.28158,3.80443 1.28158,4.36304 0,0.52107 4.1483,0.55141 -32.47761,-0.23668 -9.7432,-0.20964 -8.90713,0.0875 -8.00209,-2.84272 z" /><path
               id="path341"
               style="fill:#d8ca16;stroke-width:0.264583"
               d="m 249.2789,69.850905 c -2.51564,0 -5.26548,1.600622 -6.22546,3.624068 -0.25989,0.547674 -0.54302,1.653005 -0.62942,2.456181 l -0.1571,1.460376 -20.93102,0.0677 -20.93102,0.0677 -0.14832,-1.438672 c -0.18248,-1.767989 -0.80748,-3.132454 -1.96422,-4.289143 -1.4164,-1.41638 -2.3683,-1.801903 -4.44417,-1.800924 -1.39266,6.59e-4 -2.12398,0.143909 -2.94814,0.578776 -1.35595,0.715444 -2.80672,2.374534 -3.23495,3.698999 -0.49131,1.520191 -0.67313,9.691835 -0.32142,14.474569 0.92162,12.532425 3.98762,21.979995 9.67951,29.828665 1.91171,2.63606 6.94458,7.75096 9.59115,9.74721 1.0548,0.79587 1.91823,1.59145 1.91823,1.76785 0,0.17641 -0.56556,0.70347 -1.25678,1.17151 -4.00613,2.71278 -9.11981,7.47644 -11.75328,10.94868 -2.82257,3.72148 -4.84521,7.66517 -6.37843,12.43542 -1.91269,5.95188 -2.83651,12.11634 -2.83651,18.93476 0,3.97462 0.0259,4.17181 0.7276,5.54437 0.8788,1.71899 2.25506,2.86918 3.95893,3.30832 0.69654,0.17954 1.6833,0.26614 2.19263,0.19224 1.54529,-0.22421 3.39878,-1.14048 4.23592,-2.09393 1.06035,-1.20768 1.50017,-2.33917 1.72444,-4.43332 0.16059,-1.49963 0.26973,-1.7671 0.76895,-1.89239 0.31984,-0.0803 5.57469,-0.005 11.6768,0.1664 6.10234,0.17188 15.7386,0.38775 21.41368,0.47955 l 10.31875,0.16692 0.18345,1.6645 c 0.26488,2.40129 1.57374,4.28602 3.74655,5.3945 1.27802,0.65213 3.62401,0.68246 5.15989,0.0693 1.36704,-0.54697 3.27307,-2.62383 3.69228,-4.02302 0.39127,-1.3057 0.4031,-5.32603 0.03,-9.77149 -0.78232,-9.30431 -3.29791,-17.45338 -7.27294,-23.56032 -3.09769,-4.75925 -6.52904,-8.31866 -11.95534,-12.40079 -1.63711,-1.23159 -2.97656,-2.28118 -2.97656,-2.33268 0,-0.0515 1.16085,-1.02659 2.57968,-2.16627 4.83983,-3.8884 8.88174,-8.4162 11.47114,-12.84987 3.30944,-5.66671 5.50628,-12.31258 6.76082,-20.457148 0.53026,-3.44168 0.81284,-18.019637 0.38034,-19.621022 -0.16339,-0.604956 -0.68267,-1.676564 -1.15341,-2.38125 -0.60808,-0.909856 -1.27279,-1.491971 -2.29289,-2.008663 -0.79008,-0.400159 -1.86998,-0.727604 -2.39933,-0.727604 z m -49.0213,18.785417 h 20.93825 c 16.56061,0 20.94432,0.06915 20.96462,0.330729 0.12982,1.674714 -0.92827,8.819611 -1.38803,9.373591 -0.31821,0.38346 -1.01015,0.38611 -15.96802,0.0708 -4.65666,-0.0982 -11.70694,-0.19475 -15.66726,-0.21445 -6.56746,-0.0327 -7.22203,-0.0764 -7.44244,-0.49868 -0.28156,-0.5395 -1.00054,-4.69504 -1.25884,-7.276043 z m 10.46137,20.648348 c 3.02181,-0.008 7.75884,0.0469 14.7035,0.16433 5.69892,0.0964 10.36216,0.28016 10.36216,0.40825 0,0.461 -2.25186,3.29686 -4.34599,5.47305 -2.1168,2.19973 -6.01562,5.31486 -8.40104,6.71225 -0.68076,0.39879 -1.3439,0.72502 -1.47329,0.72502 -0.45331,0 -4.81276,-2.73255 -7.12515,-4.46588 -1.28397,-0.96244 -3.28721,-2.70274 -4.45141,-3.86746 -2.1783,-2.17951 -3.93157,-4.52756 -3.68194,-4.93148 0.0848,-0.13718 1.39158,-0.2096 4.41316,-0.21808 z m 10.68514,28.56415 c 0.3902,0 7.06474,4.56426 9.37049,6.40788 1.14309,0.91399 2.08276,1.81074 2.08876,1.99264 0.008,0.25308 -0.99866,0.32121 -4.28863,0.28991 -6.16965,-0.0588 -17.99295,-0.45949 -18.42471,-0.62426 -0.29349,-0.11201 -0.26707,-0.25251 0.13229,-0.70435 0.87212,-0.98647 4.40799,-3.49661 7.69359,-5.46116 1.74838,-1.04554 3.29127,-1.90066 3.42821,-1.90066 z m -19.65203,19.49597 19.46341,0.1881 c 10.70483,0.10343 19.54567,0.27079 19.64583,0.37207 0.30965,0.31314 1.54492,4.85345 1.38906,5.10563 -0.17839,0.28865 -4.97149,0.25692 -25.60515,-0.1695 -8.70748,-0.17995 -15.94054,-0.43554 -16.07292,-0.56792 -0.24187,-0.24187 0.25964,-2.63717 0.87075,-4.15892 z" /><path
               id="path339"
               style="fill:#220055;stroke-width:0.264583"
               d="m 249.2789,69.850905 c -2.51564,0 -5.26548,1.600622 -6.22546,3.624068 -0.25989,0.547674 -0.54302,1.653005 -0.62942,2.456181 l -0.1571,1.460376 -20.93102,0.0677 -20.93102,0.0677 -0.14832,-1.438672 c -0.18248,-1.767989 -0.80748,-3.132454 -1.96422,-4.289143 -1.4164,-1.41638 -2.3683,-1.801903 -4.44417,-1.800924 -1.39266,6.59e-4 -2.12398,0.143909 -2.94814,0.578776 -1.35595,0.715444 -2.80672,2.374534 -3.23495,3.698999 -0.49131,1.520191 -0.67313,9.691835 -0.32142,14.474569 0.92162,12.532425 3.98762,21.979995 9.67951,29.828665 1.91171,2.63606 6.94458,7.75096 9.59115,9.74721 1.0548,0.79587 1.91823,1.59145 1.91823,1.76785 0,0.17641 -0.56556,0.70347 -1.25678,1.17151 -4.00613,2.71278 -9.11981,7.47644 -11.75328,10.94868 -2.82257,3.72148 -4.84521,7.66517 -6.37843,12.43542 -1.91269,5.95188 -2.83651,12.11634 -2.83651,18.93476 0,3.97462 0.0259,4.17181 0.7276,5.54437 0.8788,1.71899 2.25506,2.86918 3.95893,3.30832 0.69654,0.17954 1.6833,0.26614 2.19263,0.19224 1.54529,-0.22421 3.39878,-1.14048 4.23592,-2.09393 1.06035,-1.20768 1.50017,-2.33917 1.72444,-4.43332 0.16059,-1.49963 0.26973,-1.7671 0.76895,-1.89239 0.31984,-0.0803 5.57469,-0.005 11.6768,0.1664 6.10234,0.17188 15.7386,0.38775 21.41368,0.47955 l 10.31875,0.16692 0.18345,1.6645 c 0.26488,2.40129 1.57374,4.28602 3.74655,5.3945 1.27802,0.65213 3.62401,0.68246 5.15989,0.0693 1.36704,-0.54697 3.27307,-2.62383 3.69228,-4.02302 0.39127,-1.3057 0.4031,-5.32603 0.03,-9.77149 -0.78232,-9.30431 -3.29791,-17.45338 -7.27294,-23.56032 -3.09769,-4.75925 -6.52904,-8.31866 -11.95534,-12.40079 -1.63711,-1.23159 -2.97656,-2.28118 -2.97656,-2.33268 0,-0.0515 1.16085,-1.02659 2.57968,-2.16627 4.83983,-3.8884 8.88174,-8.4162 11.47114,-12.84987 3.30944,-5.66671 5.50628,-12.31258 6.76082,-20.457148 0.53026,-3.44168 0.81284,-18.019637 0.38034,-19.621022 -0.16339,-0.604956 -0.68267,-1.676564 -1.15341,-2.38125 -0.60808,-0.909856 -1.27279,-1.491971 -2.29289,-2.008663 -0.79008,-0.400159 -1.86998,-0.727604 -2.39933,-0.727604 z m -49.0213,18.785417 h 20.93825 c 16.56061,0 20.94432,0.06915 20.96462,0.330729 0.12982,1.674714 -0.92827,8.819611 -1.38803,9.373591 -0.31821,0.38346 -1.01015,0.38611 -15.96802,0.0708 -4.65666,-0.0982 -11.70694,-0.19475 -15.66726,-0.21445 -6.56746,-0.0327 -7.22203,-0.0764 -7.44244,-0.49868 -0.28156,-0.5395 -1.00054,-4.69504 -1.25884,-7.276043 z m 8.66459,12.562018 c 11.05155,0.0233 30.52595,0.38723 30.70406,0.67541 0.14012,0.22671 -1.35529,3.96134 -1.74046,4.34651 -0.29464,0.29465 -8.40128,0.3395 -25.38449,0.14056 -10.46004,-0.12252 -11.61262,-0.17991 -12.64161,-0.62735 -0.62271,-0.27077 -1.24779,-0.70806 -1.38906,-0.97204 -0.45839,-0.85649 -0.29181,-1.97718 0.38912,-2.61689 0.50673,-0.47605 1.12035,-0.65739 2.84427,-0.84026 0.78589,-0.0834 3.53417,-0.11369 7.21817,-0.10594 z m 1.79678,8.08633 c 3.02181,-0.008 7.75884,0.0469 14.7035,0.16433 5.69892,0.0964 10.36216,0.28016 10.36216,0.40825 0,0.461 -2.25186,3.29686 -4.34599,5.47305 -2.1168,2.19973 -6.01562,5.31486 -8.40104,6.71225 -0.68076,0.39879 -1.3439,0.72502 -1.47329,0.72502 -0.45331,0 -4.81276,-2.73255 -7.12515,-4.46588 -1.28397,-0.96244 -3.28721,-2.70274 -4.45141,-3.86746 -2.1783,-2.17951 -3.93157,-4.52756 -3.68194,-4.93148 0.0848,-0.13718 1.39158,-0.2096 4.41316,-0.21808 z m 10.68514,28.56415 c 0.3902,0 7.06474,4.56426 9.37049,6.40788 1.14309,0.91399 2.08276,1.81074 2.08876,1.99264 0.008,0.25308 -0.99866,0.32121 -4.28863,0.28991 -6.16965,-0.0588 -17.99295,-0.45949 -18.42471,-0.62426 -0.29349,-0.11201 -0.26707,-0.25251 0.13229,-0.70435 0.87212,-0.98647 4.40799,-3.49661 7.69359,-5.46116 1.74838,-1.04554 3.29127,-1.90066 3.42821,-1.90066 z m -5.73402,11.64477 c 0.81858,-0.0177 1.59371,0.0616 1.59371,0.25321 0,0.3285 -2.38341,4.04645 -2.75901,4.30361 -0.37919,0.25982 -2.99652,0.25506 -3.15743,-0.003 -0.11741,-0.18998 1.80065,-3.4739 2.46858,-4.22609 0.17341,-0.19534 1.03557,-0.30997 1.85415,-0.32763 z m 7.74527,0.26923 c 0.98227,-0.004 1.78594,0.0823 1.78594,0.19275 0,0.11046 -0.50602,1.09274 -1.12448,2.18282 -1.12448,1.98178 -1.12448,1.98212 -3.04271,2.05982 -1.35921,0.0551 -1.91823,-0.0147 -1.91823,-0.23978 0,-0.1747 0.56555,-1.18859 1.25677,-2.25257 1.25677,-1.93491 1.25677,-1.93504 3.04271,-1.94304 z m 6.51691,0.20206 c 0.9548,-0.0192 2.78303,0.0721 2.89285,0.1819 0.0484,0.0485 -0.32973,0.99205 -0.84026,2.09703 l -0.92811,2.00918 h -1.86965 c -1.1701,0 -1.86914,-0.10773 -1.86914,-0.28784 0,-0.2396 1.70817,-3.52916 2.04639,-3.94085 0.0282,-0.0343 0.24966,-0.053 0.56792,-0.0594 z m 8.22121,0.0548 c 0.57187,0 1.1046,0.10471 1.1839,0.23306 0.0793,0.12835 -0.19049,1.05131 -0.59944,2.05052 -0.74353,1.8172 -0.74368,1.81745 -2.25516,1.89705 l -1.51154,0.0796 1.07125,-2.1301 c 1.0663,-2.12116 1.07581,-2.13011 2.11099,-2.13011 z m -29.39976,0.73536 c 0.11411,-0.025 -0.08,0.43703 -0.48421,1.13068 -0.96265,1.65206 -1.85363,2.67619 -1.85363,2.13062 0,-0.39217 1.60368,-2.66779 2.26963,-3.22048 0.0291,-0.0242 0.0519,-0.0372 0.0682,-0.0408 z m 34.39273,0.71727 c 0.0657,-0.0104 0.12009,0.0612 0.17777,0.20154 0.1048,0.25499 0.11765,0.75745 0.0263,1.11672 -0.17886,0.71354 -1.2314,1.48451 -1.1963,0.87644 0.0108,-0.18702 0.23529,-0.81628 0.49919,-1.39837 0.24207,-0.53392 0.38353,-0.77902 0.49299,-0.79633 z m -41.39437,5.87251 19.46341,0.1881 c 10.70483,0.10343 19.54567,0.27079 19.64583,0.37207 0.30965,0.31314 1.54492,4.85345 1.38906,5.10563 -0.17839,0.28865 -4.97149,0.25692 -25.60515,-0.1695 -8.70748,-0.17995 -15.94054,-0.43554 -16.07292,-0.56792 -0.24187,-0.24187 0.25964,-2.63717 0.87075,-4.15892 z"
               sodipodi:nodetypes="ccscccccscccccscccssssssscscccccccsscccscccccsccccccccsssscsccccssssscccssccsccscsccccccsccsccscccssssssscsccssscscsssscssssccsssssc" /><path
               id="path337"
               style="fill:#48b042;stroke-width:0.264583"
               d="m 249.2789,69.850905 c -2.51564,0 -5.26548,1.600622 -6.22546,3.624068 -0.25989,0.547674 -0.54302,1.653005 -0.62942,2.456181 l -0.1571,1.460376 -20.93102,0.0677 -20.93102,0.0677 -0.14832,-1.438672 c -0.18248,-1.767989 -0.80748,-3.132454 -1.96422,-4.289143 -1.4164,-1.41638 -2.3683,-1.801903 -4.44417,-1.800924 -1.39266,6.59e-4 -2.12398,0.143909 -2.94814,0.578776 -1.35595,0.715444 -2.80672,2.374534 -3.23495,3.698999 -0.49131,1.520191 -0.67313,9.691835 -0.32142,14.474569 0.92162,12.532425 3.98762,21.979995 9.67951,29.828665 1.91171,2.63606 6.94458,7.75096 9.59115,9.74721 1.0548,0.79587 1.91823,1.59145 1.91823,1.76785 0,0.17641 -0.56556,0.70347 -1.25678,1.17151 -4.00613,2.71278 -9.11981,7.47644 -11.75328,10.94868 -2.82257,3.72148 -4.84521,7.66517 -6.37843,12.43542 -1.91269,5.95188 -2.83651,12.11634 -2.83651,18.93476 0,3.97462 0.0259,4.17181 0.7276,5.54437 0.8788,1.71899 2.25506,2.86918 3.95893,3.30832 0.69654,0.17954 1.6833,0.26614 2.19263,0.19224 1.54529,-0.22421 3.39878,-1.14048 4.23592,-2.09393 1.06035,-1.20768 1.50017,-2.33917 1.72444,-4.43332 0.16059,-1.49963 0.26973,-1.7671 0.76895,-1.89239 0.31984,-0.0803 5.57469,-0.005 11.6768,0.1664 6.10234,0.17188 15.7386,0.38775 21.41368,0.47955 l 10.31875,0.16692 0.18345,1.6645 c 0.26488,2.40129 1.57374,4.28602 3.74655,5.3945 1.27802,0.65213 3.62401,0.68246 5.15989,0.0693 1.36704,-0.54697 3.27307,-2.62383 3.69228,-4.02302 0.39127,-1.3057 0.4031,-5.32603 0.03,-9.77149 -0.78232,-9.30431 -3.29791,-17.45338 -7.27294,-23.56032 -3.09769,-4.75925 -6.52904,-8.31866 -11.95534,-12.40079 -1.63711,-1.23159 -2.97656,-2.28118 -2.97656,-2.33268 0,-0.0515 1.16085,-1.02659 2.57968,-2.16627 4.83983,-3.8884 8.88174,-8.4162 11.47114,-12.84987 3.30944,-5.66671 5.50628,-12.31258 6.76082,-20.457148 0.53026,-3.44168 0.81284,-18.019637 0.38034,-19.621022 -0.16339,-0.604956 -0.68267,-1.676564 -1.15341,-2.38125 -0.60808,-0.909856 -1.27279,-1.491971 -2.29289,-2.008663 -0.79008,-0.400159 -1.86998,-0.727604 -2.39933,-0.727604 z m -0.3359,3.175 c 1.21562,0 2.22505,0.671034 2.92023,1.941484 0.40278,0.736019 0.45559,1.679086 0.44029,7.848099 -0.0188,7.560542 -0.35432,11.063954 -1.58854,16.584514 -1.36775,6.118098 -3.55982,11.418348 -6.63112,16.031578 -3.1016,4.65931 -8.77044,10.00912 -14.66215,13.8374 -1.38955,0.90291 -5.19955,3.21928 -8.46667,5.14801 -8.38589,4.95047 -11.06287,6.82592 -14.14435,9.90999 -4.03229,4.03514 -6.96911,8.65953 -8.40518,13.2333 -1.29234,4.11646 -1.8902,8.28402 -2.20916,15.40836 -0.20008,4.46913 -0.43711,5.19476 -2.01487,6.15673 -1.04671,0.63818 -1.89575,0.65779 -3.08301,0.0734 -0.61922,-0.30503 -1.0615,-0.81375 -1.42731,-1.64073 -0.48527,-1.09702 -0.51544,-1.5465 -0.3545,-5.30665 0.20343,-4.75282 0.95372,-10.28586 1.87689,-13.83895 0.87409,-3.36397 2.52486,-7.55373 3.98322,-10.10997 2.62801,-4.60684 6.40985,-8.8485 11.23911,-12.60544 3.18254,-2.47564 6.04163,-4.27497 11.50937,-7.24297 5.85966,-3.18037 9.83761,-5.75354 12.99663,-8.40672 5.73357,-4.81547 10.53554,-12.23722 12.52326,-19.35489 1.43937,-5.154028 1.90003,-9.169416 2.03709,-17.74465 0.0787,-4.922728 0.23002,-7.889784 0.42168,-8.277531 0.44096,-0.892051 1.83137,-1.644344 3.03909,-1.644344 z m -54.94135,0.06201 c 0.14163,0.0043 0.27799,0.02209 0.40618,0.05426 0.39322,0.09869 1.1129,0.577308 1.59886,1.063501 0.76771,0.767685 0.88419,1.058663 0.88419,2.213302 0,1.284697 -0.037,1.350178 -1.10071,1.944584 -1.64132,0.917135 -2.65436,2.319125 -2.80448,3.881417 -0.0688,0.716344 0.0221,1.748627 0.20206,2.293916 0.40328,1.222607 1.85272,2.866009 2.91558,3.306259 0.44587,0.184657 0.84222,0.575534 0.90382,0.890901 0.0604,0.309 0.24707,1.811988 0.41445,3.339847 0.16737,1.52797 0.46904,3.55203 0.67076,4.49792 0.33598,1.57551 0.32988,1.74198 -0.0853,1.98437 -0.24885,0.14552 -0.94703,0.74298 -1.55133,1.32757 -0.69497,0.672298 -1.20783,1.468318 -1.39578,2.166278 -0.32097,1.19201 -0.14936,2.98357 0.38809,4.05195 0.8894,1.76804 3.00072,3.03739 5.55212,3.33726 1.40608,0.16525 1.42596,0.17996 2.37091,1.79576 1.32893,2.27236 4.18218,5.52391 6.64869,7.5768 2.17803,1.81237 5.07608,3.93977 6.8001,4.99142 0.55635,0.33932 0.91354,0.70912 0.79375,0.82166 -0.1198,0.11254 -1.42897,0.87131 -2.90938,1.6862 -1.48041,0.81489 -2.86733,1.48156 -3.0825,1.48156 -0.6182,0 -5.11841,-3.6031 -7.5923,-6.0787 -2.43836,-2.4398 -4.86724,-5.49453 -6.53138,-8.21448 -2.23094,-3.64584 -4.46791,-9.58602 -5.59914,-14.871448 -1.19652,-5.58906 -1.81406,-13.695802 -1.49604,-19.633424 0.16316,-3.046161 0.2794,-3.720772 0.76481,-4.441073 0.58842,-0.873128 1.84254,-1.497625 2.83394,-1.46761 z m 6.25595,15.548405 h 20.93825 c 16.56061,0 20.94432,0.06915 20.96462,0.330729 0.12982,1.674714 -0.92827,8.819613 -1.38803,9.373593 -0.31821,0.38346 -1.01015,0.38611 -15.96802,0.0708 -4.65666,-0.0982 -11.70694,-0.19475 -15.66726,-0.21445 -6.56746,-0.0327 -7.22203,-0.0764 -7.44244,-0.49868 -0.28156,-0.5395 -1.00054,-4.69504 -1.25884,-7.276045 z m 8.66459,12.56202 c 11.05155,0.0233 30.52595,0.38723 30.70406,0.67541 0.14012,0.22671 -1.35529,3.96134 -1.74046,4.34651 -0.29464,0.29465 -8.40128,0.3395 -25.38449,0.14056 -10.46004,-0.12252 -11.61262,-0.17991 -12.64161,-0.62735 -0.62271,-0.27077 -1.24779,-0.70806 -1.38906,-0.97204 -0.45839,-0.85649 -0.29181,-1.97718 0.38912,-2.61689 0.50673,-0.47605 1.12035,-0.65739 2.84427,-0.84026 0.78589,-0.0834 3.53417,-0.11369 7.21817,-0.10594 z m 1.79678,8.08633 c 3.02181,-0.008 7.75884,0.0469 14.7035,0.16433 5.69892,0.0964 10.36216,0.28016 10.36216,0.40825 0,0.461 -2.25186,3.29686 -4.34599,5.47305 -2.1168,2.19973 -6.01562,5.31486 -8.40104,6.71225 -0.68076,0.39879 -1.3439,0.72502 -1.47329,0.72502 -0.45331,0 -4.81276,-2.73255 -7.12515,-4.46588 -1.28397,-0.96244 -3.28721,-2.70274 -4.45141,-3.86746 -2.1783,-2.17951 -3.93157,-4.52756 -3.68194,-4.93148 0.0848,-0.13718 1.39158,-0.2096 4.41316,-0.21808 z m 22.16144,24.52925 c 0.0436,-0.004 0.0889,-0.004 0.13695,0.002 0.32007,0.0405 0.76671,0.32573 1.72599,0.99994 4.13358,2.90538 8.38273,7.1842 10.98382,11.06186 1.61325,2.40456 3.40271,6.00202 4.35426,8.75243 1.82229,5.26775 2.74588,10.59718 3.05511,17.63252 0.14959,3.40337 0.11004,4.24718 -0.23616,5.06946 -0.233,0.55342 -0.7995,1.22073 -1.29088,1.52032 -0.4817,0.29368 -1.30637,0.53432 -1.83244,0.53485 -1.67888,0.002 -3.14451,-1.65443 -3.14451,-3.55327 0,-0.85915 0.10962,-0.99053 1.35805,-1.62316 2.3838,-1.20796 3.66903,-3.07111 3.66903,-5.31905 0,-1.30753 -0.50822,-2.49271 -1.55133,-3.61632 -0.79997,-0.86171 -1.83669,-1.45287 -3.32486,-1.89653 -1.03955,-0.30992 -1.03946,-0.31004 -1.78904,-3.1843 l -0.74931,-2.87424 0.94672,-0.91984 c 0.52082,-0.50586 1.1144,-1.2429 1.31878,-1.63814 0.97169,-1.87905 0.68451,-4.34795 -0.68626,-5.9092 -1.11502,-1.26993 -2.85517,-1.99764 -5.49424,-2.29754 -1.44878,-0.16462 -2.47089,-0.42356 -2.8143,-0.71262 -0.29657,-0.24963 -1.22094,-1.06944 -2.05414,-1.82211 -0.83319,-0.75267 -2.97647,-2.46321 -4.76302,-3.8008 -1.78632,-1.33759 -3.34479,-2.52057 -3.46283,-2.6293 -0.11803,-0.10873 0.89422,-0.88646 2.24895,-1.72806 1.35497,-0.84137 2.70925,-1.69094 3.00964,-1.88722 0.13846,-0.0905 0.2552,-0.14853 0.38602,-0.16175 z m -11.4763,4.0349 c 0.3902,0 7.06474,4.56426 9.37049,6.40788 1.14309,0.91399 2.08276,1.81074 2.08876,1.99264 0.008,0.25308 -0.99866,0.32121 -4.28863,0.28991 -6.16965,-0.0588 -17.99295,-0.45949 -18.42471,-0.62426 -0.29349,-0.11201 -0.26707,-0.25251 0.13229,-0.70435 0.87212,-0.98647 4.40799,-3.49661 7.69359,-5.46116 1.74838,-1.04554 3.29127,-1.90066 3.42821,-1.90066 z m -5.73402,11.64477 c 0.81858,-0.0177 1.59371,0.0616 1.59371,0.25321 0,0.3285 -2.38341,4.04645 -2.75901,4.30361 -0.37919,0.25982 -2.99652,0.25506 -3.15743,-0.003 -0.11741,-0.18998 1.80065,-3.4739 2.46858,-4.22609 0.17341,-0.19534 1.03557,-0.30997 1.85415,-0.32763 z m 7.74527,0.26923 c 0.98227,-0.004 1.78594,0.0823 1.78594,0.19275 0,0.11046 -0.50602,1.09274 -1.12448,2.18282 -1.12448,1.98178 -1.12448,1.98212 -3.04271,2.05982 -1.35921,0.0551 -1.91823,-0.0147 -1.91823,-0.23978 0,-0.1747 0.56555,-1.18859 1.25677,-2.25257 1.25677,-1.93491 1.25677,-1.93504 3.04271,-1.94304 z m 6.51691,0.20206 c 0.9548,-0.0192 2.78303,0.0721 2.89285,0.1819 0.0484,0.0485 -0.32973,0.99205 -0.84026,2.09703 l -0.92811,2.00918 h -1.86965 c -1.1701,0 -1.86914,-0.10773 -1.86914,-0.28784 0,-0.2396 1.70817,-3.52916 2.04639,-3.94085 0.0282,-0.0343 0.24966,-0.053 0.56792,-0.0594 z m 8.22121,0.0548 c 0.57187,0 1.1046,0.10471 1.1839,0.23306 0.0793,0.12835 -0.19049,1.05131 -0.59944,2.05052 -0.74353,1.8172 -0.74368,1.81745 -2.25516,1.89705 l -1.51154,0.0796 1.07125,-2.1301 c 1.0663,-2.12116 1.07581,-2.13011 2.11099,-2.13011 z m -29.39976,0.73536 c 0.11411,-0.025 -0.08,0.43703 -0.48421,1.13068 -0.96265,1.65206 -1.85363,2.67619 -1.85363,2.13062 0,-0.39217 1.60368,-2.66779 2.26963,-3.22048 0.0291,-0.0242 0.0519,-0.0372 0.0682,-0.0408 z m 34.39273,0.71727 c 0.0657,-0.0104 0.12009,0.0612 0.17777,0.20154 0.1048,0.25499 0.11765,0.75745 0.0263,1.11672 -0.17886,0.71354 -1.2314,1.48451 -1.1963,0.87644 0.0108,-0.18702 0.23529,-0.81628 0.49919,-1.39837 0.24207,-0.53392 0.38353,-0.77902 0.49299,-0.79633 z m -41.39437,5.87251 19.46341,0.1881 c 10.70483,0.10343 19.54567,0.27079 19.64583,0.37207 0.30965,0.31314 1.54492,4.85345 1.38906,5.10563 -0.17839,0.28865 -4.97149,0.25692 -25.60515,-0.1695 -8.70748,-0.17995 -15.94054,-0.43554 -16.07292,-0.56792 -0.24187,-0.24187 0.25964,-2.63717 0.87075,-4.15892 z" /><path
               id="path335"
               style="fill:#38559a;stroke-width:0.264583"
               d="m 249.2789,69.850905 c -2.51564,0 -5.26548,1.600622 -6.22546,3.624068 -0.25989,0.547674 -0.54302,1.653005 -0.62942,2.456181 l -0.1571,1.460376 -20.93102,0.0677 -20.93102,0.0677 -0.14832,-1.438672 c -0.18248,-1.767989 -0.80748,-3.132454 -1.96422,-4.289143 -1.4164,-1.41638 -2.3683,-1.801903 -4.44417,-1.800924 -1.39266,6.59e-4 -2.12398,0.143909 -2.94814,0.578776 -1.35595,0.715444 -2.80672,2.374534 -3.23495,3.698999 -0.49131,1.520191 -0.67313,9.691835 -0.32142,14.474569 0.92162,12.532425 3.98762,21.979995 9.67951,29.828665 1.91171,2.63606 6.94458,7.75096 9.59115,9.74721 1.0548,0.79587 1.91823,1.59145 1.91823,1.76785 0,0.17641 -0.56556,0.70347 -1.25678,1.17151 -4.00613,2.71278 -9.11981,7.47644 -11.75328,10.94868 -2.82257,3.72148 -4.84521,7.66517 -6.37843,12.43542 -1.91269,5.95188 -2.83651,12.11634 -2.83651,18.93476 0,3.97462 0.0259,4.17181 0.7276,5.54437 0.8788,1.71899 2.25506,2.86918 3.95893,3.30832 0.69654,0.17954 1.6833,0.26614 2.19263,0.19224 1.54529,-0.22421 3.39878,-1.14048 4.23592,-2.09393 1.06035,-1.20768 1.50017,-2.33917 1.72444,-4.43332 0.16059,-1.49963 0.26973,-1.7671 0.76895,-1.89239 0.31984,-0.0803 5.57469,-0.005 11.6768,0.1664 6.10234,0.17188 15.7386,0.38775 21.41368,0.47955 l 10.31875,0.16692 0.18345,1.6645 c 0.26488,2.40129 1.57374,4.28602 3.74655,5.3945 1.27802,0.65213 3.62401,0.68246 5.15989,0.0693 1.36704,-0.54697 3.27307,-2.62383 3.69228,-4.02302 0.39127,-1.3057 0.4031,-5.32603 0.03,-9.77149 -0.78232,-9.30431 -3.29791,-17.45338 -7.27294,-23.56032 -3.09769,-4.75925 -6.52904,-8.31866 -11.95534,-12.40079 -1.63711,-1.23159 -2.97656,-2.28118 -2.97656,-2.33268 0,-0.0515 1.16085,-1.02659 2.57968,-2.16627 4.83983,-3.8884 8.88174,-8.4162 11.47114,-12.84987 3.30944,-5.66671 5.50628,-12.31258 6.76082,-20.457148 0.53026,-3.44168 0.81284,-18.019637 0.38034,-19.621022 -0.16339,-0.604956 -0.68267,-1.676564 -1.15341,-2.38125 -0.60808,-0.909856 -1.27279,-1.491971 -2.29289,-2.008663 -0.79008,-0.400159 -1.86998,-0.727604 -2.39933,-0.727604 z m -0.3359,3.175 c 1.21562,0 2.22505,0.671034 2.92023,1.941484 0.23715,0.433359 0.35298,0.938497 0.40501,2.539851 0.0363,1.11839 0.0416,2.771479 0.0353,5.308248 -0.0188,7.560542 -0.35432,11.063954 -1.58854,16.584514 -1.36775,6.118098 -3.55982,11.418348 -6.63112,16.031578 -3.1016,4.65931 -8.77044,10.00912 -14.66215,13.8374 -1.38955,0.90291 -5.19955,3.21928 -8.46667,5.14801 -8.38589,4.95047 -11.06287,6.82592 -14.14435,9.90999 -4.03229,4.03514 -6.96911,8.65953 -8.40518,13.2333 -1.29234,4.11646 -1.8902,8.28402 -2.20916,15.40836 -0.20008,4.46913 -0.43711,5.19476 -2.01487,6.15673 -1.04671,0.63818 -1.89575,0.65779 -3.08301,0.0734 -0.61922,-0.30503 -1.0615,-0.81375 -1.42731,-1.64073 -0.48527,-1.09702 -0.51544,-1.5465 -0.3545,-5.30665 0.20343,-4.75282 0.95372,-10.28586 1.87689,-13.83895 0.87409,-3.36397 2.52486,-7.55373 3.98322,-10.10997 2.62801,-4.60684 6.40985,-8.8485 11.23911,-12.60544 3.18254,-2.47564 6.04163,-4.27497 11.50937,-7.24297 5.85966,-3.18037 9.83761,-5.75354 12.99663,-8.40672 5.73357,-4.81547 10.53554,-12.23722 12.52326,-19.35489 1.43937,-5.154028 1.90003,-9.169416 2.03709,-17.74465 0.0787,-4.922728 0.23002,-7.889784 0.42168,-8.277531 0.44096,-0.892051 1.83137,-1.644344 3.03909,-1.644344 z m -54.94135,0.06201 c 0.14163,0.0043 0.27799,0.02209 0.40618,0.05426 0.39322,0.09869 1.1129,0.577308 1.59886,1.063501 0.76771,0.767685 0.88419,1.058663 0.88419,2.213302 0,1.284697 -0.037,1.350178 -1.10071,1.944584 -1.64132,0.917135 -2.65436,2.319125 -2.80448,3.881417 -0.0688,0.716344 0.0221,1.748627 0.20206,2.293916 0.40328,1.222607 1.85272,2.866009 2.91558,3.306259 0.44587,0.184657 0.84222,0.575534 0.90382,0.890901 0.0604,0.309 0.24707,1.811988 0.41445,3.339847 0.16737,1.52797 0.46904,3.55203 0.67076,4.49792 0.33598,1.57551 0.32988,1.74198 -0.0853,1.98437 -0.24885,0.14552 -0.94703,0.74298 -1.55133,1.32757 -0.69497,0.672298 -1.20783,1.468318 -1.39578,2.166278 -0.32097,1.19201 -0.14936,2.98357 0.38809,4.05195 0.8894,1.76804 3.00072,3.03739 5.55212,3.33726 1.40608,0.16525 1.42596,0.17996 2.37091,1.79576 1.32893,2.27236 4.18218,5.52391 6.64869,7.5768 2.17803,1.81237 5.07608,3.93977 6.8001,4.99142 0.55635,0.33932 0.91354,0.70912 0.79375,0.82166 -0.1198,0.11254 -1.42897,0.87131 -2.90938,1.6862 -1.48041,0.81489 -2.86733,1.48156 -3.0825,1.48156 -0.6182,0 -5.11841,-3.6031 -7.5923,-6.0787 -2.43836,-2.4398 -4.86724,-5.49453 -6.53138,-8.21448 -2.23094,-3.64584 -4.46791,-9.58602 -5.59914,-14.871448 -1.19652,-5.58906 -1.81406,-13.695802 -1.49604,-19.633424 0.16316,-3.046161 0.2794,-3.720772 0.76481,-4.441073 0.58842,-0.873128 1.84254,-1.497625 2.83394,-1.46761 z m 6.25595,15.548405 h 20.93825 c 16.56061,0 20.94432,0.06915 20.96462,0.330729 0.12982,1.674714 -0.92827,8.819613 -1.38803,9.373593 -0.31821,0.38346 -1.01015,0.38611 -15.96802,0.0708 -4.65666,-0.0982 -11.70694,-0.19475 -15.66726,-0.21445 -6.56746,-0.0327 -7.22203,-0.0764 -7.44244,-0.49868 -0.28156,-0.5395 -1.00054,-4.69504 -1.25884,-7.276045 z m 5.09478,12.38116 v 5.1e-4 c 0.29938,-0.003 0.57006,-10e-4 0.79892,0.008 0.91484,0.036 23.31196,0.34898 28.17812,0.39378 5.07374,0.0467 5.29413,0.0705 5.35833,0.57774 0.0368,0.29097 -0.3224,1.42213 -0.7984,2.51354 l -0.86558,1.98438 -16.92817,0.006 c -9.31046,0.003 -17.63752,-0.0849 -18.50378,-0.19585 -1.90972,-0.24473 -3.29929,-0.67016 -3.90002,-1.19425 -0.24642,-0.21497 -0.52466,-0.7405 -0.61856,-1.16788 -0.19541,-0.88971 0.33008,-1.87805 1.26452,-2.37815 0.4164,-0.22285 3.91893,-0.52422 6.01462,-0.54777 z m 5.36659,8.26719 c 3.02181,-0.008 7.75884,0.0469 14.7035,0.16433 5.69892,0.0964 10.36216,0.28016 10.36216,0.40825 0,0.461 -2.25186,3.29686 -4.34599,5.47305 -2.1168,2.19973 -6.01562,5.31486 -8.40104,6.71225 -0.68076,0.39879 -1.3439,0.72502 -1.47329,0.72502 -0.45331,0 -4.81276,-2.73255 -7.12515,-4.46588 -1.28397,-0.96244 -3.28721,-2.70274 -4.45141,-3.86746 -2.1783,-2.17951 -3.93157,-4.52756 -3.68194,-4.93148 0.0848,-0.13718 1.39158,-0.2096 4.41316,-0.21808 z m 22.16144,24.52925 c 0.0436,-0.004 0.0889,-0.004 0.13695,0.002 0.32007,0.0405 0.76671,0.32573 1.72599,0.99994 4.13358,2.90538 8.38273,7.1842 10.98382,11.06186 1.61325,2.40456 3.40271,6.00202 4.35426,8.75243 1.82229,5.26775 2.74588,10.59718 3.05511,17.63252 0.14959,3.40337 0.11004,4.24718 -0.23616,5.06946 -0.233,0.55342 -0.7995,1.22073 -1.29088,1.52032 -0.4817,0.29368 -1.30637,0.53432 -1.83244,0.53485 -1.67888,0.002 -3.14451,-1.65443 -3.14451,-3.55327 0,-0.85915 0.10962,-0.99053 1.35805,-1.62316 2.3838,-1.20796 3.66903,-3.07111 3.66903,-5.31905 0,-1.30753 -0.50822,-2.49271 -1.55133,-3.61632 -0.79997,-0.86171 -1.83669,-1.45287 -3.32486,-1.89653 -1.03955,-0.30992 -1.03946,-0.31004 -1.78904,-3.1843 l -0.74931,-2.87424 0.94672,-0.91984 c 0.52082,-0.50586 1.1144,-1.2429 1.31878,-1.63814 0.97169,-1.87905 0.68451,-4.34795 -0.68626,-5.9092 -1.11502,-1.26993 -2.85517,-1.99764 -5.49424,-2.29754 -1.44878,-0.16462 -2.47089,-0.42356 -2.8143,-0.71262 -0.29657,-0.24963 -1.22094,-1.06944 -2.05414,-1.82211 -0.83319,-0.75267 -2.97647,-2.46321 -4.76302,-3.8008 -1.78632,-1.33759 -3.34479,-2.52057 -3.46283,-2.6293 -0.11803,-0.10873 0.89422,-0.88646 2.24895,-1.72806 1.35497,-0.84137 2.70925,-1.69094 3.00964,-1.88722 0.13846,-0.0905 0.2552,-0.14853 0.38602,-0.16175 z m -11.4763,4.0349 c 0.3902,0 7.06474,4.56426 9.37049,6.40788 1.14309,0.91399 2.08276,1.81074 2.08876,1.99264 0.008,0.25308 -0.99866,0.32121 -4.28863,0.28991 -6.16965,-0.0588 -17.99295,-0.45949 -18.42471,-0.62426 -0.29349,-0.11201 -0.26707,-0.25251 0.13229,-0.70435 0.87212,-0.98647 4.40799,-3.49661 7.69359,-5.46116 1.74838,-1.04554 3.29127,-1.90066 3.42821,-1.90066 z m -10.30015,11.11767 c 0.91346,-0.015 2.31297,0.0254 4.5527,0.0904 17.64862,0.51223 23.83048,0.72195 25.04033,0.84853 0.7372,0.0771 1.70803,0.36384 2.15749,0.63717 1.49311,0.90801 1.36116,2.84303 -0.25683,3.76721 -0.46561,0.26594 -3.85226,0.34003 -15.54427,0.34003 -17.39744,0 -21.43125,-0.0687 -21.43125,-0.3638 0,-0.30247 2.45111,-3.71358 3.33106,-4.63589 0.45698,-0.47899 0.62857,-0.65865 2.15077,-0.68368 z m -9.35188,8.3783 19.46341,0.1881 c 10.70483,0.10343 19.54567,0.27079 19.64583,0.37207 0.30965,0.31314 1.54492,4.85345 1.38906,5.10563 -0.17839,0.28865 -4.97149,0.25692 -25.60515,-0.1695 -8.70748,-0.17995 -15.94054,-0.43554 -16.07292,-0.56792 -0.24187,-0.24187 0.25964,-2.63717 0.87075,-4.15892 z"
               sodipodi:nodetypes="ccscccccscccccscccssssssscscccccccsscccsccccccscccscccsscssccccscccccsscsccccccscscsssccssscccscsscsccccccccccscccccscsccccsssssccccccccssscssssscccssssscscsccssccsccsccssssssccccsssssc" /><path
               id="path333"
               style="fill:#cd1a1d;stroke-width:0.264583"
               d="m 194.03265,70.125307 c -0.15292,-0.0049 -0.30761,-0.0046 -0.46302,0.0015 -0.57381,0.02267 -1.1626,0.121596 -1.75699,0.299723 -1.49169,0.446924 -3.25466,2.101744 -3.8313,3.596163 -0.43019,1.115392 -0.4807,2.103304 -0.4625,9.057329 0.0174,6.646756 0.10702,8.374538 0.60461,11.64167 0.67914,4.45701 2.05422,9.926798 3.31763,13.198158 2.53702,6.56898 6.29071,12.12088 11.47579,16.97209 1.26226,1.18098 3.10161,2.76205 4.0876,3.514 0.98599,0.75172 1.79266,1.51186 1.79266,1.68826 0,0.17641 -0.56554,0.70347 -1.25677,1.17151 -4.65019,3.14874 -10.19687,8.5279 -12.931,12.5398 -2.15555,3.16344 -3.88944,6.68041 -5.13612,10.41952 -1.84747,5.54167 -2.72627,10.68858 -3.05717,17.90847 -0.20932,4.56698 0.037,6.11641 1.23455,7.76955 0.85916,1.18633 1.64722,1.76819 3.09128,2.28358 0.54439,0.19429 1.2959,0.35884 1.66967,0.36484 1.20344,0.0206 3.26132,-0.74406 4.28862,-1.5937 1.37354,-1.13598 2.07351,-2.63382 2.27273,-4.86224 l 0.16692,-1.86655 4.89479,-0.0827 c 2.69214,-0.0452 9.06198,0.0548 14.15521,0.22169 5.09301,0.16688 12.81617,0.35378 17.16174,0.41548 4.34556,0.0617 7.99236,0.16881 8.1039,0.23771 0.11155,0.0689 0.25376,0.83235 0.31626,1.69654 0.14947,2.06622 1.21354,3.82045 2.97966,4.91236 1.1053,0.68335 1.55032,0.79916 3.03547,0.79116 1.28951,-0.007 2.0407,-0.16764 2.89854,-0.61805 1.42341,-0.74748 2.33473,-1.68967 2.97346,-3.0763 0.4039,-0.87661 0.48799,-1.73969 0.49299,-5.02915 0.006,-4.06334 -0.44006,-8.84705 -1.19528,-12.81317 -1.03799,-5.452 -3.55327,-11.87352 -6.34069,-16.19074 -2.80733,-4.34771 -6.59999,-8.25567 -11.70678,-12.06438 -1.63711,-1.22092 -2.97656,-2.37213 -2.97656,-2.5585 0,-0.18637 1.04179,-1.16084 2.3151,-2.16524 3.11379,-2.45619 6.98637,-6.3649 9.02219,-9.10694 5.70104,-7.67877 8.92867,-17.45356 9.82782,-29.765623 0.32107,-4.399802 0.32019,-9.40945 0.009,-12.411646 -0.194,-1.844289 -0.41029,-2.619916 -0.99374,-3.563607 -0.41018,-0.66342 -1.24816,-1.559909 -1.86242,-1.991609 -0.85618,-0.601747 -1.49005,-0.811594 -2.71508,-0.900204 -1.11803,-0.08087 -1.96097,0.02311 -2.80706,0.346232 -2.47521,0.945268 -4.04727,3.05889 -4.05867,5.457548 -0.003,0.702939 -0.15879,1.351477 -0.36535,1.522905 -0.26201,0.217454 -6.03229,0.280333 -21.23282,0.230993 l -20.87314,-0.0677 -0.15296,-1.5875 c -0.0841,-0.873103 -0.30723,-1.885156 -0.4961,-2.248958 -1.19843,-2.3088 -3.21966,-3.620346 -5.51646,-3.694348 z m -0.108,2.637048 c 0.95112,-8.29e-4 1.3109,0.16301 2.22364,1.014409 0.97513,0.909564 1.10157,1.171664 1.21233,2.50734 0.12121,1.461511 0.10661,1.501354 -0.74104,1.961121 -2.41339,1.308982 -3.61527,3.22364 -3.30833,5.270479 0.22665,1.511349 1.07622,2.697824 2.69699,3.767212 1.35804,0.895918 1.35802,0.895977 1.53273,2.645833 0.0961,0.962418 0.41833,3.296043 0.71623,5.185213 0.51523,3.26749 0.51827,3.44798 0.076,3.70417 -1.06498,0.61595 -2.338,1.903868 -2.67219,2.703708 -0.54723,1.30969 -0.44255,3.22247 0.24184,4.41937 0.96659,1.68967 2.19726,2.48819 4.63176,3.0055 2.16108,0.45916 2.16139,0.45948 3.16157,2.10581 2.38346,3.92328 6.5766,7.94422 11.90108,11.41223 1.48461,0.96671 2.70498,1.89664 2.71198,2.06602 0.007,0.16937 -1.46942,1.09211 -3.28094,2.05052 -1.81151,0.95841 -3.40077,1.74253 -3.53208,1.74253 -0.37839,0 -3.39875,-2.36657 -6.14536,-4.81469 -2.69936,-2.40603 -5.7739,-6.02007 -7.79694,-9.16637 -3.30529,-5.13971 -5.59001,-11.96392 -6.92309,-20.679358 -0.35952,-2.350012 -0.46794,-4.759242 -0.47594,-10.58333 -0.01,-6.771905 0.0377,-7.629649 0.46508,-8.412407 0.64004,-1.172272 1.90958,-1.90411 3.30471,-1.90531 z m 55.11963,0 c 1.38992,-0.0011 2.35262,0.604696 3.08354,1.94045 0.40151,0.733779 0.45778,1.698021 0.45578,7.8481 -10e-4,4.137058 -0.14236,8.150291 -0.3452,9.789587 -1.48904,12.034998 -5.2085,20.922418 -11.80289,28.203438 -2.36972,2.61647 -6.47421,6.0178 -10.47171,8.67906 -1.81901,1.21091 -5.80761,3.6673 -8.86355,5.45806 -3.05572,1.79099 -6.8064,4.09274 -8.33437,5.11494 -3.75772,2.51389 -8.104,6.8473 -10.41074,10.37921 -4.01272,6.14412 -5.35207,11.39544 -5.88439,23.07818 -0.15969,3.50438 -0.26044,4.16568 -0.74724,4.89479 -0.30954,0.46364 -0.97721,1.05142 -1.48363,1.30586 -0.50643,0.25443 -1.29008,0.46279 -1.7415,0.46302 -1.0774,5.4e-4 -2.49802,-0.97091 -3.10317,-2.12183 -0.43289,-0.82334 -0.46872,-1.39629 -0.33796,-5.41828 0.30417,-9.3555 1.99435,-16.66009 5.36143,-23.17171 1.75455,-3.39292 3.85869,-6.25504 6.76961,-9.20719 4.37687,-4.43864 8.45415,-7.3496 16.34009,-11.66647 8.78605,-4.80936 12.57121,-7.48569 16.50855,-11.67112 2.55991,-2.72121 5.82678,-7.62032 7.24969,-10.87117 2.85394,-6.520748 4.13335,-14.668632 3.9858,-25.385014 -0.0631,-4.58337 -0.017,-5.271691 0.39429,-5.899381 0.70876,-1.081687 1.98779,-1.74143 3.37757,-1.74253 z M 210.49057,88.41463 c 2.80674,-0.0011 6.35704,0.0072 10.83706,0.0217 l 20.93929,0.0677 -0.0186,1.719792 c -0.0103,0.945868 -0.23762,3.07823 -0.5054,4.73873 -0.33699,2.08973 -0.63674,3.16889 -0.97358,3.50573 -0.26765,0.26765 -0.75469,0.46385 -1.08211,0.43615 -1.58827,-0.13412 -18.90689,-0.41015 -27.74869,-0.44235 -7.99795,-0.0292 -10.01408,-0.10647 -10.25209,-0.39326 -0.16295,-0.19634 -0.41695,-0.99484 -0.56482,-1.77457 -0.49326,-2.60093 -1.02444,-7.167223 -0.87798,-7.548893 0.0928,-0.241942 1.82606,-0.327533 10.24692,-0.330729 z m -5.13819,12.60285 v 5.1e-4 c 0.29938,-0.003 0.57006,-10e-4 0.79892,0.008 0.91485,0.036 23.31196,0.34898 28.17812,0.39378 5.07375,0.0467 5.29413,0.0705 5.35833,0.57774 0.0368,0.29097 -0.3224,1.42213 -0.7984,2.51354 l -0.86558,1.98438 -16.92817,0.006 c -9.31047,0.003 -17.63752,-0.0849 -18.50378,-0.19585 -1.90972,-0.24473 -3.29929,-0.67016 -3.90002,-1.19425 -0.24642,-0.21497 -0.52466,-0.7405 -0.61856,-1.16788 -0.19541,-0.88971 0.33008,-1.87805 1.26452,-2.37815 0.4164,-0.22285 3.91893,-0.52422 6.01462,-0.54777 z m 5.93452,8.17469 c 2.25282,-0.0138 5.39215,0.0218 9.68106,0.045 8.07618,0.0437 14.79214,0.18306 14.92364,0.31006 0.41232,0.39819 -1.68845,3.15936 -4.73718,6.22597 -2.6424,2.65808 -6.53049,5.68003 -8.78448,6.82749 -0.46572,0.23713 -0.89356,0.4315 -0.95136,0.4315 -0.17386,0 -4.65611,-2.84903 -6.15363,-3.91139 -2.70305,-1.91734 -5.7544,-4.71012 -7.43417,-6.80423 -2.08342,-2.59734 -3.30215,-3.08303 3.45612,-3.12436 z m 21.87308,24.15873 c 0.59383,0 5.2772,3.73495 7.79643,6.21719 4.18919,4.12826 7.07941,8.55168 9.10538,13.9361 2.18421,5.80457 3.15998,11.21614 3.35535,18.60817 0.12473,4.71945 0.10043,5.07873 -0.40256,5.87251 -0.29468,0.46503 -0.83472,1.04125 -1.19992,1.28054 -1.0474,0.68628 -2.5401,0.76162 -3.46232,0.17467 -1.52205,-0.9687 -1.84854,-1.55404 -1.85054,-3.31246 -0.002,-1.6207 -0.001,-1.62045 1.12242,-2.15646 2.79027,-1.33098 4.16007,-3.78707 3.49642,-6.26887 -0.43153,-1.61353 -2.18971,-3.25072 -4.08192,-3.8008 -0.8001,-0.2326 -1.51827,-0.52572 -1.59577,-0.65112 -0.0775,-0.12539 -0.4255,-1.33777 -0.77359,-2.69441 -0.3481,-1.35665 -0.71107,-2.66152 -0.80667,-2.89956 -0.12094,-0.3011 0.19062,-0.77466 1.02423,-1.55598 0.65878,-0.61767 1.33501,-1.53713 1.50223,-2.0438 0.16719,-0.50667 0.25168,-1.55447 0.18758,-2.32803 -0.2352,-2.83607 -2.5772,-4.5415 -6.61561,-4.81831 -2.1445,-0.14699 -2.14448,-0.14748 -4.28501,-2.13217 -1.17729,-1.09157 -3.72579,-3.16527 -5.66322,-4.60798 -2.67554,-1.99266 -3.45565,-2.70386 -3.24477,-2.95796 0.40586,-0.48903 5.98823,-3.86127 6.39186,-3.86127 z m -11.78636,4.49792 c 1.23637,0 11.74859,7.62778 11.75949,8.53281 0.006,0.52092 -0.17645,0.52391 -10.70994,0.18604 -3.05593,-0.098 -7.04453,-0.19703 -8.86354,-0.21963 -1.81901,-0.0226 -3.48298,-0.15169 -3.69745,-0.28732 -0.32811,-0.2075 -0.28615,-0.35762 0.26458,-0.94516 0.35999,-0.38404 1.4559,-1.29254 2.435,-2.019 2.6122,-1.93831 8.1696,-5.24774 8.81186,-5.24774 z m -10.26966,11.11767 c 0.91346,-0.015 2.31297,0.0254 4.5527,0.0904 17.64864,0.51223 23.83048,0.72143 25.04033,0.84801 0.7372,0.0771 1.70803,0.36384 2.15749,0.63717 1.49311,0.90801 1.36116,2.84355 -0.25683,3.76773 -0.46561,0.26594 -3.85225,0.34003 -15.54427,0.34003 -17.39746,0 -21.43125,-0.0687 -21.43125,-0.3638 0,-0.30247 2.45111,-3.71358 3.33106,-4.63589 0.45698,-0.47899 0.62856,-0.65865 2.15077,-0.68368 z m -3.25096,8.33437 c 3.58425,0.009 8.46513,0.0387 13.77642,0.0863 l 19.31458,0.17312 0.72606,2.11666 c 0.39927,1.16416 0.69696,2.47386 0.66146,2.91042 -0.0645,0.79376 -0.0646,0.79376 -2.71043,0.82166 -2.84616,0.03 -19.70417,-0.30132 -31.75,-0.62374 l -7.40834,-0.19792 0.0227,-1.05833 c 0.0348,-1.61076 0.83029,-4.04587 1.36891,-4.19096 0.12666,-0.0341 2.41435,-0.0461 5.9986,-0.0372 z m -4.64674,8.1747 c 0.14597,-0.01 0.28159,0.0121 0.37103,0.0677 0.17889,0.11124 2.46818,0.2291 5.08755,0.262 8.18593,0.10283 20.99511,0.3447 25.13541,0.47491 2.18281,0.0686 4.44501,0.11094 5.02709,0.093 3.2087,-0.0968 5.19655,0.0177 6.61458,0.38085 2.24403,0.57474 2.42736,0.67526 2.77761,1.52084 0.24722,0.59677 0.23931,0.90651 -0.0419,1.47846 -0.58912,1.20201 -1.64559,1.79722 -3.33416,1.87792 -4.07977,0.19508 -14.85082,0.2893 -15.00942,0.13126 -0.0991,-0.0987 -1.98579,-0.19731 -4.19251,-0.21911 -3.38127,-0.0334 -10.79337,-0.22898 -14.19862,-0.37465 -0.50933,-0.0218 -1.40229,-0.004 -1.98437,0.0388 -1.31482,0.0975 -7.84404,-0.23624 -8.0176,-0.4098 -0.07,-0.07 0.0929,-1.21093 0.36173,-2.53524 0.34769,-1.7127 0.62744,-2.4822 0.96894,-2.66496 0.13203,-0.0707 0.28862,-0.11204 0.4346,-0.12195 z" /><path
               id="path331"
               style="fill:#131318;stroke-width:0.264583"
               d="m 194.03265,70.125307 c -0.15292,-0.0049 -0.30761,-0.0046 -0.46302,0.0015 -0.57381,0.02267 -1.1626,0.121596 -1.75699,0.299723 -1.49169,0.446924 -3.25466,2.101744 -3.8313,3.596163 -0.43019,1.115392 -0.4807,2.103304 -0.4625,9.057329 0.0174,6.646756 0.10702,8.374538 0.60461,11.64167 0.67914,4.45701 2.05422,9.926798 3.31763,13.198158 2.53702,6.56898 6.29071,12.12088 11.47579,16.97209 1.26226,1.18098 3.10161,2.76205 4.0876,3.514 0.98599,0.75172 1.79266,1.51186 1.79266,1.68826 0,0.17641 -0.56554,0.70347 -1.25677,1.17151 -4.65019,3.14874 -10.19687,8.5279 -12.931,12.5398 -2.15555,3.16344 -3.88944,6.68041 -5.13612,10.41952 -1.84747,5.54167 -2.72627,10.68858 -3.05717,17.90847 -0.20932,4.56698 0.037,6.11641 1.23455,7.76955 0.85916,1.18633 1.64722,1.76819 3.09128,2.28358 0.54439,0.19429 1.2959,0.35884 1.66967,0.36484 1.20344,0.0206 3.26132,-0.74406 4.28862,-1.5937 1.37354,-1.13598 2.07351,-2.63382 2.27273,-4.86224 l 0.16692,-1.86655 4.89479,-0.0827 c 2.69214,-0.0452 9.06198,0.0548 14.15521,0.22169 5.09301,0.16688 12.81617,0.35378 17.16174,0.41548 4.34556,0.0617 7.99236,0.16881 8.1039,0.23771 0.11155,0.0689 0.25376,0.83235 0.31626,1.69654 0.14947,2.06622 1.21354,3.82045 2.97966,4.91236 1.1053,0.68335 1.55032,0.79916 3.03547,0.79116 1.28951,-0.007 2.0407,-0.16764 2.89854,-0.61805 1.42341,-0.74748 2.33473,-1.68967 2.97346,-3.0763 0.4039,-0.87661 0.48799,-1.73969 0.49299,-5.02915 0.006,-4.06334 -0.44006,-8.84705 -1.19528,-12.81317 -1.03799,-5.452 -3.55327,-11.87352 -6.34069,-16.19074 -2.80733,-4.34771 -6.59999,-8.25567 -11.70678,-12.06438 -1.63711,-1.22092 -2.97656,-2.37213 -2.97656,-2.5585 0,-0.18637 1.04179,-1.16084 2.3151,-2.16524 3.11379,-2.45619 6.98637,-6.3649 9.02219,-9.10694 5.70104,-7.67877 9.2286,-17.4519 10.12775,-29.763961 0.32107,-4.399802 0.0203,-9.411112 -0.29093,-12.413308 -0.194,-1.844289 -0.4122,-2.275683 -0.99565,-3.219374 -0.41018,-0.66342 -1.24625,-1.904142 -1.86051,-2.335842 -0.85618,-0.601747 -1.49005,-0.811594 -2.71508,-0.900204 -1.11803,-0.08087 -1.96097,0.02311 -2.80706,0.346232 -2.47521,0.945268 -4.04727,3.05889 -4.05867,5.457548 -0.003,0.702939 -0.15879,1.351477 -0.36535,1.522905 -0.26201,0.217454 -6.03229,0.280333 -21.23282,0.230993 l -20.87314,-0.0677 -0.15296,-1.5875 c -0.0841,-0.873103 -0.30723,-1.885156 -0.4961,-2.248958 -1.19843,-2.3088 -3.21966,-3.620346 -5.51646,-3.694348 z m -0.108,2.637048 c 0.95112,-8.29e-4 1.3109,0.16301 2.22364,1.014409 0.97513,0.909564 1.10157,1.171664 1.21233,2.50734 0.12121,1.461511 0.10661,1.501354 -0.74104,1.961121 -2.41339,1.308982 -3.61527,3.22364 -3.30833,5.270479 0.22665,1.511349 1.07622,2.697824 2.69699,3.767212 1.35804,0.895918 1.35802,0.895977 1.53273,2.645833 0.0961,0.962418 0.41833,3.296043 0.71623,5.185213 0.51523,3.26749 0.51827,3.44798 0.076,3.70417 -1.06498,0.61595 -2.338,1.903868 -2.67219,2.703708 -0.54723,1.30969 -0.44255,3.22247 0.24184,4.41937 0.96659,1.68967 2.19726,2.48819 4.63176,3.0055 2.16108,0.45916 2.16139,0.45948 3.16157,2.10581 2.38346,3.92328 6.5766,7.94422 11.90108,11.41223 1.48461,0.96671 2.70498,1.89664 2.71198,2.06602 0.007,0.16937 -1.46942,1.09211 -3.28094,2.05052 -1.81151,0.95841 -3.40077,1.74253 -3.53208,1.74253 -0.37839,0 -3.39875,-2.36657 -6.14536,-4.81469 -2.69936,-2.40603 -5.7739,-6.02007 -7.79694,-9.16637 -3.30529,-5.13971 -5.59001,-11.96392 -6.92309,-20.679358 -0.35952,-2.350012 -0.46794,-4.759242 -0.47594,-10.58333 -0.01,-6.771905 0.0377,-7.629649 0.46508,-8.412407 0.64004,-1.172272 1.90958,-1.90411 3.30471,-1.90531 z m 55.11963,0 c 1.38992,-0.0011 2.35263,0.604685 3.08354,1.94045 0.2256,0.412298 0.34221,0.897357 0.40072,2.33423 0.0456,1.12037 0.0559,2.81942 0.0551,5.51387 -0.001,4.137058 -0.14236,8.150291 -0.3452,9.789587 -1.48904,12.034998 -5.2085,20.922418 -11.80289,28.203438 -2.36972,2.61647 -6.47421,6.0178 -10.47171,8.67906 -1.81901,1.21091 -5.80761,3.6673 -8.86355,5.45806 -3.05572,1.79099 -6.8064,4.09274 -8.33437,5.11494 -3.75772,2.51389 -8.104,6.8473 -10.41074,10.37921 -4.01272,6.14412 -5.35207,11.39544 -5.88439,23.07818 -0.15969,3.50438 -0.26044,4.16568 -0.74724,4.89479 -0.30954,0.46364 -0.97721,1.05142 -1.48363,1.30586 -0.50643,0.25443 -1.29008,0.46279 -1.7415,0.46302 -1.0774,5.4e-4 -2.49802,-0.97091 -3.10317,-2.12183 -0.43289,-0.82334 -0.46872,-1.39629 -0.33796,-5.41828 0.30417,-9.3555 1.99435,-16.66009 5.36143,-23.17171 1.75455,-3.39292 3.85869,-6.25504 6.76961,-9.20719 4.37687,-4.43864 8.45415,-7.3496 16.34009,-11.66647 8.78605,-4.80936 12.57121,-7.48569 16.50855,-11.67112 2.55991,-2.72121 5.82678,-7.62032 7.24969,-10.87117 2.85394,-6.520748 4.13335,-14.668632 3.9858,-25.385014 -0.0631,-4.58337 -0.017,-5.271691 0.39429,-5.899381 0.70876,-1.081687 1.98779,-1.74143 3.37757,-1.74253 z m -28.17347,7.673434 c 21.4661,-0.0015 21.46653,-0.0016 21.62607,0.593762 0.25327,0.945191 0.19249,3.62548 -0.0951,4.16202 -0.25126,0.469488 -1.11266,0.489161 -21.36511,0.498161 -22.89762,0.0097 -23.12755,-0.004 -24.33495,-1.407666 -0.3324,-0.38644 -0.60461,-0.998857 -0.60461,-1.361158 0,-0.871921 1.01089,-1.846029 2.28151,-2.198832 0.69371,-0.192611 7.97804,-0.285287 22.49217,-0.286287 z m -10.38024,7.978841 c 2.80674,-0.0011 6.35704,0.0072 10.83706,0.0217 l 20.93929,0.0677 -0.0186,1.719792 c -0.0103,0.945868 -0.23762,3.07823 -0.5054,4.73873 -0.33699,2.08973 -0.63674,3.16889 -0.97358,3.50573 -0.26765,0.26765 -0.75469,0.46385 -1.08211,0.43615 -1.58827,-0.13412 -18.90689,-0.41015 -27.74869,-0.44235 -7.99795,-0.0292 -10.01408,-0.10647 -10.25209,-0.39326 -0.16295,-0.19634 -0.41695,-0.99484 -0.56482,-1.77457 -0.49326,-2.60093 -1.02444,-7.167223 -0.87798,-7.548893 0.0928,-0.241942 1.82606,-0.327533 10.24692,-0.330729 z m -1.87224,12.63954 c 10.49804,0.008 30.37536,0.29015 30.83636,0.43821 0.48722,0.15648 0.26057,1.20789 -0.73329,3.3998 l -0.78703,1.73581 -16.88373,-0.0398 c -9.28586,-0.0218 -17.24091,-0.0818 -17.67747,-0.13333 -0.43657,-0.0515 -1.41991,-0.16153 -2.1854,-0.24443 -3.34504,-0.36229 -4.34153,-3.5798 -1.47898,-4.77594 0.74285,-0.31018 2.49675,-0.38533 8.90954,-0.38033 z m 2.66857,8.138 c 2.25282,-0.0138 5.39215,0.0218 9.68106,0.045 8.07618,0.0437 14.79214,0.18306 14.92364,0.31006 0.41232,0.39819 -1.68845,3.15936 -4.73718,6.22597 -2.6424,2.65808 -6.53049,5.68003 -8.78448,6.82749 -0.46572,0.23713 -0.89356,0.4315 -0.95136,0.4315 -0.17386,0 -4.65611,-2.84903 -6.15363,-3.91139 -2.70305,-1.91734 -5.7544,-4.71012 -7.43417,-6.80423 -2.08342,-2.59734 -3.30215,-3.08303 3.45612,-3.12436 z m 21.87308,24.15873 c 0.59383,0 5.2772,3.73495 7.79643,6.21719 4.18919,4.12826 7.07941,8.55168 9.10538,13.9361 2.18421,5.80457 3.15998,11.21614 3.35535,18.60817 0.12473,4.71945 0.10043,5.07873 -0.40256,5.87251 -0.29468,0.46503 -0.83472,1.04125 -1.19992,1.28054 -1.0474,0.68628 -2.5401,0.76162 -3.46232,0.17467 -1.52205,-0.9687 -1.84854,-1.55404 -1.85054,-3.31246 -0.002,-1.6207 -0.001,-1.62045 1.12242,-2.15646 2.79027,-1.33098 4.16007,-3.78707 3.49642,-6.26887 -0.43153,-1.61353 -2.18971,-3.25072 -4.08192,-3.8008 -0.8001,-0.2326 -1.51827,-0.52572 -1.59577,-0.65112 -0.0775,-0.12539 -0.4255,-1.33777 -0.77359,-2.69441 -0.3481,-1.35665 -0.71107,-2.66152 -0.80667,-2.89956 -0.12094,-0.3011 0.19062,-0.77466 1.02423,-1.55598 0.65878,-0.61767 1.33501,-1.53713 1.50223,-2.0438 0.16719,-0.50667 0.25168,-1.55447 0.18758,-2.32803 -0.2352,-2.83607 -2.5772,-4.5415 -6.61561,-4.81831 -2.1445,-0.14699 -2.14448,-0.14748 -4.28501,-2.13217 -1.17729,-1.09157 -3.72579,-3.16527 -5.66322,-4.60798 -2.67554,-1.99266 -3.45565,-2.70386 -3.24477,-2.95796 0.40586,-0.48903 5.98823,-3.86127 6.39186,-3.86127 z m -11.78636,4.49792 c 1.23637,0 11.74859,7.62778 11.75949,8.53281 0.006,0.52092 -0.17645,0.52391 -10.70994,0.18604 -3.05593,-0.098 -7.04453,-0.19703 -8.86354,-0.21963 -1.81901,-0.0226 -3.48298,-0.15169 -3.69745,-0.28732 -0.32811,-0.2075 -0.28615,-0.35762 0.26458,-0.94516 0.35999,-0.38404 1.4559,-1.29254 2.435,-2.019 2.6122,-1.93831 8.1696,-5.24774 8.81186,-5.24774 z m -10.26966,11.11767 c 0.91346,-0.015 2.31297,0.0254 4.5527,0.0904 17.64864,0.51223 23.83048,0.72143 25.04033,0.84801 0.7372,0.0771 1.70803,0.36384 2.15749,0.63717 1.49311,0.90801 1.36116,2.84355 -0.25683,3.76773 -0.46561,0.26594 -3.85225,0.34003 -15.54427,0.34003 -17.39746,0 -21.43125,-0.0687 -21.43125,-0.3638 0,-0.30247 2.45111,-3.71358 3.33106,-4.63589 0.45698,-0.47899 0.62856,-0.65865 2.15077,-0.68368 z m -3.25096,8.33437 c 3.58425,0.009 8.46513,0.0387 13.77642,0.0863 l 19.31458,0.17312 0.72606,2.11666 c 0.39927,1.16416 0.69696,2.47386 0.66146,2.91042 -0.0645,0.79376 -0.0646,0.79376 -2.71043,0.82166 -2.84616,0.03 -19.70417,-0.30132 -31.75,-0.62374 l -7.40834,-0.19792 0.0227,-1.05833 c 0.0348,-1.61076 0.83029,-4.04587 1.36891,-4.19096 0.12666,-0.0341 2.41435,-0.0461 5.9986,-0.0372 z m -4.64674,8.1747 c 0.14597,-0.01 0.28159,0.0121 0.37103,0.0677 0.17889,0.11124 2.46818,0.2291 5.08755,0.262 8.18593,0.10283 20.99511,0.3447 25.13541,0.47491 2.18281,0.0686 4.44501,0.11094 5.02709,0.093 3.2087,-0.0968 5.19655,0.0177 6.61458,0.38085 2.24403,0.57474 2.42736,0.67526 2.77761,1.52084 0.24722,0.59677 0.23931,0.90651 -0.0419,1.47846 -0.58912,1.20201 -1.64559,1.79722 -3.33416,1.87792 -4.07977,0.19508 -14.85082,0.2893 -15.00942,0.13126 -0.0991,-0.0987 -1.98579,-0.19731 -4.19251,-0.21911 -3.38127,-0.0334 -10.79337,-0.22898 -14.19862,-0.37465 -0.50933,-0.0218 -1.40229,-0.004 -1.98437,0.0388 -1.31482,0.0975 -7.84404,-0.23624 -8.0176,-0.4098 -0.07,-0.07 0.0929,-1.21093 0.36173,-2.53524 0.34769,-1.7127 0.62744,-2.4822 0.96894,-2.66496 0.13203,-0.0707 0.28862,-0.11204 0.4346,-0.12195 z"
               sodipodi:nodetypes="ccccsccscscccscscscccssscscccccccsscccsssscsccccccccccscsscsccscsssscccsccsssccsccscsssssscccscsssssccsssssccccssccssccssscccccsscssccscsccsccsssscccsssscscsscssscsssscsccssssssccsscccscccsssssscccscccsscsscss" /></g><path
             style="fill:#220055;fill-opacity:1;stroke-width:0.0792876"
             d="m 26.884385,186.59744 c -0.08771,0.0195 -0.176818,0.0412 -0.267587,0.0669 -1.137285,0.31614 -3.307277,1.17216 -4.127702,1.62743 -1.782724,0.99 -4.613065,3.00435 -4.981249,3.54513 -0.23677,0.34781 -0.261157,0.75161 -0.06636,1.10061 0.117742,0.21105 0.559722,0.63873 1.046653,1.01299 0.09443,0.0726 0.260025,0.0909 0.463086,0.0517 0.190767,-0.0367 0.302963,-0.0265 0.283,0.0266 -0.01823,0.0479 -0.162216,0.11267 -0.320118,0.14437 -0.284785,0.058 -0.285562,0.0595 -0.09512,0.16459 0.105553,0.0585 0.386727,0.41187 0.624934,0.78533 0.238205,0.37348 0.669497,0.9601 0.958548,1.30414 0.542029,0.64513 1.308438,1.42608 1.345626,1.37116 0.01159,-0.0172 -0.228348,-0.47124 -0.533255,-1.00874 -0.646732,-1.14024 -1.315166,-2.45052 -1.354385,-2.65409 -0.036,-0.18778 0.148254,-0.21562 0.610563,-0.0922 0.257193,0.0686 0.415039,0.1678 0.499958,0.31419 0.268156,0.46218 1.07501,1.46591 1.645295,2.04704 0.686038,0.6991 1.407017,1.33323 1.447758,1.27299 0.01518,-0.0226 -0.244704,-0.43827 -0.578019,-0.92426 -0.779233,-1.13628 -1.168289,-1.79485 -1.402392,-2.37333 -0.169463,-0.41849 -0.177223,-0.48185 -0.07843,-0.6448 0.108463,-0.17885 0.101895,-0.17943 -0.624262,-0.0497 l -0.734091,0.13135 0.64274,-0.22613 c 0.35354,-0.12424 0.906595,-0.35359 1.228991,-0.50967 0.368911,-0.17876 0.822884,-0.32899 1.225439,-0.40567 0.631061,-0.12173 0.643195,-0.11974 0.927131,0.10029 0.421886,0.32738 1.07495,1.08892 1.429387,1.66658 0.299411,0.48788 0.311506,0.53049 0.3562,1.22335 0.05665,0.87838 0.02111,1.52514 -0.117732,2.12878 -0.105466,0.45855 -0.105468,0.45863 0.04872,0.33797 0.08479,-0.0665 0.265206,-0.27398 0.401054,-0.46144 0.144558,-0.19943 0.225976,-0.26962 0.19627,-0.16945 -0.08807,0.29759 -0.398154,0.66608 -0.802033,0.95339 -0.308739,0.21981 -0.638555,0.35056 -1.574998,0.62608 -0.682204,0.201 -1.333467,0.43919 -1.535736,0.56223 -0.500456,0.30465 -0.811004,0.73606 -1.084961,1.50622 -0.277458,0.78011 -0.332668,0.89105 -0.557844,1.12003 -0.201884,0.20525 -0.554705,0.27744 -1.205884,0.24746 -0.722311,-0.0336 -0.967605,0.0531 -0.312247,0.11077 0.310397,0.0273 0.641731,0.0732 0.735977,0.10243 0.156642,0.0487 0.140821,0.0798 -0.183133,0.35789 -0.194999,0.16735 -0.352183,0.31633 -0.349368,0.33094 0.0027,0.0147 0.145471,-0.0462 0.317222,-0.13466 0.17147,-0.0891 0.547623,-0.24455 0.835601,-0.3474 0.288032,-0.1028 0.601232,-0.26969 0.695892,-0.37078 0.170203,-0.18331 0.328502,-0.52465 0.688214,-1.48404 0.192585,-0.51359 0.541701,-0.93674 0.978717,-1.18633 0.137566,-0.0793 0.665959,-0.26019 1.174121,-0.40216 1.489203,-0.41958 1.985953,-0.73479 2.474419,-1.57394 0.222712,-0.38222 0.248053,-0.40497 0.184631,-0.16712 -0.04038,0.1514 -0.175887,0.42734 -0.301396,0.61274 -0.229654,0.33925 -0.838695,0.83789 -1.082896,0.88593 -0.161497,0.0315 -0.725944,1.47333 -0.792266,2.02299 -0.03852,0.31868 -0.02176,0.42295 0.09813,0.6047 0.202148,0.3065 0.893059,0.428 1.634135,0.28723 0.945995,-0.1793 1.20802,-0.45472 2.253862,-2.35824 0.430382,-0.78384 0.852971,-1.42345 1.244517,-1.88273 0.326152,-0.38256 0.696262,-0.85119 0.822504,-1.04101 0.294252,-0.44241 0.454931,-1.09138 0.415793,-1.68258 -0.03081,-0.46625 -0.03081,-0.46626 0.448165,-0.70314 0.706048,-0.34909 1.828248,-0.73376 2.536924,-0.86977 1.401056,-0.26954 2.932774,-0.0435 4.125536,0.60718 0.676254,0.36892 0.806995,0.7042 1.182912,1.19279 0.593195,1.341 1.235171,4.53722 0.861072,5.48403 -0.188131,1.54785 -2.92284,4.31156 -0.559547,4.66761 1.07275,0.11066 1.883346,0.26794 2.943838,0.46077 0.600174,0.0666 1.019124,-0.50444 1.58463,-0.24665 1.574474,0.89929 3.119304,-4.9489 3.25173,-5.82609 0.559086,-3.54844 0.394159,-5.20937 -1.227564,-8.14181 -0.432556,-0.77462 -1.228804,-1.80806 -1.862998,-2.41766 -0.276005,-0.26532 -0.789405,-0.67999 -1.140537,-0.92124 -1.519706,-1.04421 -3.169317,-1.58098 -5.961144,-1.94021 -2.021354,-0.26014 -3.909915,-0.22411 -6.476024,0.12404 -1.395937,0.18958 -1.812174,0.18406 -2.740635,-0.0347 -0.67347,-0.15871 -1.223621,-0.17216 -1.837581,-0.0375 z m 1.211257,1.53963 c 0.01106,-0.001 0.01892,0.002 0.02195,0.005 0.08624,0.0584 -0.175929,0.86479 -0.378364,1.16384 -0.103153,0.15251 -0.295162,0.3206 -0.426283,0.37419 -0.427231,0.17519 -1.734279,0.33203 -2.622586,0.31589 -0.213981,-0.004 -0.5624,0.0261 -0.774351,0.0672 -0.211801,0.0421 -0.390898,0.047 -0.397288,0.0145 -0.01762,-0.0908 3.955462,-1.7688 4.530829,-1.92483 0.01908,-0.001 0.03476,-0.0107 0.0465,-0.01 z m -3.283132,4.43215 c 0.184208,-0.0267 1.143385,0.0809 2.346266,0.26317 0.861761,0.13065 1.089082,0.13508 1.661401,0.0299 0.493562,-0.0898 0.720208,-0.16828 0.886422,-0.30546 0.22319,-0.18441 0.222723,-0.18445 0.318823,0.0596 0.05291,0.13417 0.104543,0.49681 0.114189,0.80582 0.03779,1.1978 -0.30734,2.72869 -0.865242,3.84053 -0.185007,0.36872 -0.445084,0.92751 -0.578069,1.24179 -0.31657,0.74829 -0.924769,1.93845 -1.153103,2.25613 -0.09955,0.13844 -0.272475,0.30785 -0.384242,0.37664 -0.25348,0.15607 -0.767037,0.24612 -1.146529,0.20326 -0.287473,-0.0333 -0.2861,-0.034 0.211684,-0.17965 0.786958,-0.23181 1.026633,-0.48518 1.634168,-1.73684 1.776215,-3.65804 1.780527,-3.67045 1.605042,-4.82191 -0.06561,-0.43169 -0.185041,-0.92009 -0.265259,-1.08513 -0.146177,-0.29995 -0.146459,-0.3 -0.742524,-0.27845 -0.327806,0.012 -0.928552,-0.0388 -1.334767,-0.11283 -1.126038,-0.20548 -2.408406,-0.50706 -2.33443,-0.54862 0.0057,-0.002 0.01428,-0.003 0.02625,-0.0106 z"
             id="path1921"
             transform="matrix(1.890438,0,0,1.890438,67.769036,-332.59184)"
             sodipodi:nodetypes="ccccccccccsscccccscccccccccccssccccccccccccccccccccsscccccsccccscccccccsccccccccccccccccccccccsccccccccccccc"
             inkscape:original-d="m 26.884385,186.59744 c -0.08771,0.0195 -0.176818,0.0412 -0.267587,0.0669 -1.137285,0.31614 -3.307277,1.17216 -4.127702,1.62743 -1.782724,0.99 -4.613065,3.00435 -4.981249,3.54513 -0.23677,0.34781 -0.261157,0.75161 -0.06636,1.10061 0.117742,0.21105 0.559722,0.63873 1.046653,1.01299 0.09443,0.0726 0.260025,0.0909 0.463086,0.0517 0.190767,-0.0367 0.302963,-0.0265 0.283,0.0266 -0.01823,0.0479 -0.162216,0.11267 -0.320118,0.14437 -0.284785,0.058 -0.285562,0.0595 -0.09512,0.16459 0.105553,0.0585 0.386727,0.41187 0.624934,0.78533 0.238205,0.37348 0.669497,0.9601 0.958548,1.30414 0.542029,0.64513 1.308438,1.42608 1.345626,1.37116 0.01159,-0.0172 -0.228348,-0.47124 -0.533255,-1.00874 -0.646732,-1.14024 -1.315166,-2.45052 -1.354385,-2.65409 -0.036,-0.18778 0.148254,-0.21562 0.610563,-0.0922 0.257193,0.0686 0.415039,0.1678 0.499958,0.31419 0.268156,0.46218 1.07501,1.46591 1.645295,2.04704 0.686038,0.6991 1.407017,1.33323 1.447758,1.27299 0.01518,-0.0226 -0.244704,-0.43827 -0.578019,-0.92426 -0.779233,-1.13628 -1.168289,-1.79485 -1.402392,-2.37333 -0.169463,-0.41849 -0.177223,-0.48185 -0.07843,-0.6448 0.108463,-0.17885 0.101895,-0.17943 -0.624262,-0.0497 l -0.734091,0.13135 0.64274,-0.22613 c 0.35354,-0.12424 0.906595,-0.35359 1.228991,-0.50967 0.368911,-0.17876 0.822884,-0.32899 1.225439,-0.40567 0.631061,-0.12173 0.643195,-0.11974 0.927131,0.10029 0.421886,0.32738 1.07495,1.08892 1.429387,1.66658 0.299411,0.48788 0.311506,0.53049 0.3562,1.22335 0.05665,0.87838 0.02111,1.52514 -0.117732,2.12878 -0.105466,0.45855 -0.105468,0.45863 0.04872,0.33797 0.08479,-0.0665 0.265206,-0.27398 0.401054,-0.46144 0.144558,-0.19943 0.225976,-0.26962 0.19627,-0.16945 -0.08807,0.29759 -0.398154,0.66608 -0.802033,0.95339 -0.308739,0.21981 -0.638555,0.35056 -1.574998,0.62608 -0.682204,0.201 -1.333467,0.43919 -1.535736,0.56223 -0.500456,0.30465 -0.811004,0.73606 -1.084961,1.50622 -0.277458,0.78011 -0.332668,0.89105 -0.557844,1.12003 -0.201884,0.20525 -0.554705,0.27744 -1.205884,0.24746 -0.722311,-0.0336 -0.967605,0.0531 -0.312247,0.11077 0.310397,0.0273 0.641731,0.0732 0.735977,0.10243 0.156642,0.0487 0.140821,0.0798 -0.183133,0.35789 -0.194999,0.16735 -0.352183,0.31633 -0.349368,0.33094 0.0027,0.0147 0.145471,-0.0462 0.317222,-0.13466 0.17147,-0.0891 0.547623,-0.24455 0.835601,-0.3474 0.288032,-0.1028 0.601232,-0.26969 0.695892,-0.37078 0.170203,-0.18331 0.328502,-0.52465 0.688214,-1.48404 0.192585,-0.51359 0.541701,-0.93674 0.978717,-1.18633 0.137566,-0.0793 0.665959,-0.26019 1.174121,-0.40216 1.489203,-0.41958 1.985953,-0.73479 2.474419,-1.57394 0.222712,-0.38222 0.248053,-0.40497 0.184631,-0.16712 -0.04038,0.1514 -0.175887,0.42734 -0.301396,0.61274 -0.229654,0.33925 -0.838695,0.83789 -1.082896,0.88593 -0.161497,0.0315 -0.725944,1.47333 -0.792266,2.02299 -0.03852,0.31868 -0.02176,0.42295 0.09813,0.6047 0.202148,0.3065 0.893059,0.428 1.634135,0.28723 0.945995,-0.1793 1.20802,-0.45472 2.253862,-2.35824 0.430382,-0.78384 0.852971,-1.42345 1.244517,-1.88273 0.326152,-0.38256 0.696262,-0.85119 0.822504,-1.04101 0.294252,-0.44241 0.454931,-1.09138 0.415793,-1.68258 -0.03081,-0.46625 -0.03081,-0.46626 0.448165,-0.70314 0.706048,-0.34909 1.828248,-0.73376 2.536924,-0.86977 1.401056,-0.26954 2.932774,-0.0435 4.125536,0.60718 0.676254,0.36892 0.806995,0.7042 1.182912,1.19279 0.593195,1.341 1.235171,4.53722 0.861072,5.48403 -0.188131,1.54785 -2.92284,4.31156 -0.559547,4.66761 1.07275,0.11066 1.883346,0.26794 2.943838,0.46077 0.600174,0.0666 1.019124,-0.50444 1.58463,-0.24665 1.574474,0.89929 3.119304,-4.9489 3.25173,-5.82609 0.559086,-3.54844 0.394159,-5.20937 -1.227564,-8.14181 -0.432556,-0.77462 -1.228804,-1.80806 -1.862998,-2.41766 -0.276005,-0.26532 -0.789405,-0.67999 -1.140537,-0.92124 -1.519706,-1.04421 -3.169317,-1.58098 -5.961144,-1.94021 -2.021354,-0.26014 -3.909915,-0.22411 -6.476024,0.12404 -1.395937,0.18958 -1.812174,0.18406 -2.740635,-0.0347 -0.67347,-0.15871 -1.223621,-0.17216 -1.837581,-0.0375 z m 1.211257,1.53963 c 0.01106,-0.001 0.01892,0.002 0.02195,0.005 0.08624,0.0584 -0.175929,0.86479 -0.378364,1.16384 -0.103153,0.15251 -0.295162,0.3206 -0.426283,0.37419 -0.427231,0.17519 -1.734279,0.33203 -2.622586,0.31589 -0.213981,-0.004 -0.5624,0.0261 -0.774351,0.0672 -0.211801,0.0421 -0.390898,0.047 -0.397288,0.0145 -0.01762,-0.0908 3.955462,-1.7688 4.530829,-1.92483 0.01908,-0.001 0.03476,-0.0107 0.0465,-0.01 z m -3.283132,4.43215 c 0.184208,-0.0267 1.143385,0.0809 2.346266,0.26317 0.861761,0.13065 1.089082,0.13508 1.661401,0.0299 0.493562,-0.0898 0.720208,-0.16828 0.886422,-0.30546 0.22319,-0.18441 0.222723,-0.18445 0.318823,0.0596 0.05291,0.13417 0.104543,0.49681 0.114189,0.80582 0.03779,1.1978 -0.30734,2.72869 -0.865242,3.84053 -0.185007,0.36872 -0.445084,0.92751 -0.578069,1.24179 -0.31657,0.74829 -0.924769,1.93845 -1.153103,2.25613 -0.09955,0.13844 -0.272475,0.30785 -0.384242,0.37664 -0.25348,0.15607 -0.767037,0.24612 -1.146529,0.20326 -0.287473,-0.0333 -0.2861,-0.034 0.211684,-0.17965 0.786958,-0.23181 1.026633,-0.48518 1.634168,-1.73684 1.776215,-3.65804 1.780527,-3.67045 1.605042,-4.82191 -0.06561,-0.43169 -0.185041,-0.92009 -0.265259,-1.08513 -0.146177,-0.29995 -0.146459,-0.3 -0.742524,-0.27845 -0.327806,0.012 -0.928552,-0.0388 -1.334767,-0.11283 -1.126038,-0.20548 -2.408406,-0.50706 -2.33443,-0.54862 0.0057,-0.002 0.01428,-0.003 0.02625,-0.0106 z"
             inkscape:path-effect="#path-effect2341"
             class="UnoptimicedTransforms" /><path
             id="path4883"
             d="m 79.881853,20.444305 c 0.16581,0.03686 0.334263,0.07789 0.505856,0.12647 2.149964,0.597643 6.252204,2.215896 7.803164,3.076556 3.37013,1.871534 8.72071,5.679538 9.416738,6.701849 0.447597,0.657513 0.493697,1.420872 0.12545,2.080635 -0.222578,0.398977 -1.058118,1.207479 -1.978628,1.914994 -0.17851,0.137246 -0.49156,0.171841 -0.87543,0.09774 -0.36064,-0.06938 -0.57274,-0.0501 -0.535,0.05029 0.0345,0.09055 0.30666,0.212995 0.60516,0.272922 0.53837,0.109646 0.53984,0.112481 0.17982,0.311147 -0.19954,0.110591 -0.73108,0.778615 -1.1814,1.484618 -0.45031,0.706041 -1.26564,1.81501 -1.81207,2.465396 -1.02467,1.219578 -2.47352,2.695916 -2.54382,2.592093 -0.0219,-0.03252 0.43167,-0.89085 1.00808,-1.90696 1.22261,-2.155553 2.48624,-4.632557 2.56038,-5.017393 0.0681,-0.354987 -0.28026,-0.407616 -1.15423,-0.174298 -0.48621,0.129684 -0.7846,0.317215 -0.94514,0.593956 -0.50693,0.873723 -2.03224,2.771212 -3.11033,3.869802 -1.29691,1.321606 -2.65988,2.520389 -2.73689,2.406509 -0.0287,-0.04272 0.46259,-0.828522 1.09271,-1.747256 1.47309,-2.148067 2.20857,-3.393053 2.65113,-4.486633 0.32036,-0.79113 0.33503,-0.910908 0.14827,-1.218955 -0.20505,-0.338105 -0.19263,-0.339201 1.18013,-0.09395 l 1.38775,0.248309 -1.21506,-0.427485 c -0.66835,-0.234868 -1.71386,-0.66844 -2.32333,-0.9635 -0.69741,-0.337934 -1.55561,-0.621935 -2.31662,-0.766894 -1.19298,-0.230123 -1.21592,-0.226361 -1.75268,0.189592 -0.79755,0.618892 -2.032128,2.058536 -2.70217,3.150566 -0.566017,0.922307 -0.588882,1.002859 -0.673374,2.312668 -0.107093,1.660523 -0.03991,2.883182 0.222565,4.024326 0.199377,0.866861 0.199381,0.867012 -0.0921,0.638912 -0.16029,-0.125714 -0.501355,-0.517942 -0.758167,-0.872324 -0.273278,-0.37701 -0.427194,-0.5097 -0.371037,-0.320335 0.166491,0.562576 0.752686,1.259183 1.516194,1.802325 0.583652,0.415537 1.207149,0.662712 2.977439,1.183565 1.28966,0.379978 2.52083,0.830262 2.90321,1.062861 0.94608,0.575922 1.53315,1.391476 2.05105,2.847416 0.52452,1.474749 0.62889,1.684475 1.05457,2.117347 0.38165,0.388013 1.04864,0.524483 2.27965,0.467808 1.36548,-0.06352 1.8292,0.100382 0.59028,0.209404 -0.58678,0.05161 -1.21315,0.13838 -1.39132,0.193637 -0.29612,0.09206 -0.26621,0.150857 0.3462,0.676569 0.36864,0.316365 0.66579,0.598002 0.66046,0.625622 -0.005,0.02779 -0.275,-0.08734 -0.59968,-0.254567 -0.32416,-0.168438 -1.03525,-0.462306 -1.57966,-0.656738 -0.5445,-0.194337 -1.13659,-0.509832 -1.31554,-0.700936 -0.32176,-0.346537 -0.62101,-0.991819 -1.30102,-2.805486 -0.36407,-0.97091 -1.02406,-1.770849 -1.85021,-2.242683 -0.26006,-0.149912 -1.25895,-0.491873 -2.2196,-0.760259 -2.815244,-0.79319 -3.754319,-1.389075 -4.677734,-2.975436 -0.421023,-0.722563 -0.468929,-0.765571 -0.349033,-0.31593 0.07634,0.286212 0.332503,0.80786 0.56977,1.158347 0.434147,0.641331 1.585501,1.583979 2.047148,1.674796 0.3053,0.05955 1.372349,2.785239 1.497729,3.824337 0.0728,0.602445 0.0411,0.799561 -0.18551,1.143148 -0.38215,0.579419 -1.688271,0.809107 -3.089229,0.54299 -1.788345,-0.338955 -2.283687,-0.85962 -4.260786,-4.458106 -0.813611,-1.481801 -1.612489,-2.690944 -2.352683,-3.559184 -0.61657,-0.723206 -1.31624,-1.609122 -1.554892,-1.967965 -0.556266,-0.836349 -0.860019,-2.063187 -0.786031,-3.180813 0.05824,-0.881417 0.05824,-0.881436 -0.847228,-1.329243 -1.33474,-0.659933 -3.456266,-1.386731 -4.795898,-1.644246 -2.648685,-0.509152 -5.544228,-0.08226 -7.79907,1.147836 -3.756835,2.020465 -5.643722,8.805786 -4.393191,12.622114 0.222206,2.484106 5.123215,8.338113 1.586959,8.823827 -2.030464,0.183373 -3.560347,0.506524 -5.565142,0.871057 -1.134591,0.125904 -1.92659,0.500191 -2.995644,0.986828 -0.446531,0.409353 -0.756501,0.475125 -1.026453,0.303438 -1.503592,-3.323964 -3.624726,-8.286676 -4.152,-11.80112 -1.056919,-6.708103 -1.713873,-10.81672 1.351892,-16.360323 0.817721,-1.464371 2.322978,-3.418025 3.521882,-4.570436 0.521771,-0.501571 1.492322,-1.285479 2.156115,-1.741547 2.87291,-1.974015 5.991397,-2.988746 11.269173,-3.667848 3.821244,-0.491778 7.391452,-0.423666 12.242522,0.23449 2.638932,0.35839 3.425803,0.347954 5.181,-0.0656 1.273154,-0.300031 2.31318,-0.325457 3.473833,-0.07089 z m -2.289806,2.910575 c -0.02091,-0.0019 -0.03577,0.0038 -0.0415,0.0095 -0.163031,0.110402 0.332583,1.634833 0.715274,2.200168 0.195004,0.288311 0.557986,0.606074 0.805862,0.707383 0.807653,0.331186 3.27855,0.627682 4.95784,0.597171 0.40452,-0.0076 1.06318,0.04934 1.46386,0.127037 0.4004,0.07959 0.73897,0.08885 0.75105,0.02741 0.0333,-0.171651 -7.477559,-3.343807 -8.565254,-3.638772 -0.03607,-0.0019 -0.06571,-0.02023 -0.08791,-0.0189 z m 6.206556,8.378705 c -0.34823,-0.05047 -2.161497,0.152937 -4.435469,0.497507 -1.629106,0.246986 -2.058842,0.25536 -3.140776,0.05652 -0.933048,-0.169761 -1.361509,-0.318123 -1.675726,-0.577453 -0.421927,-0.348616 -0.421044,-0.348692 -0.602715,0.11267 -0.100023,0.25364 -0.197632,0.939188 -0.215867,1.523353 -0.07144,2.264366 0.581007,5.158419 1.635686,7.260283 0.349745,0.697043 0.841404,1.753401 1.092804,2.347527 0.598456,1.414596 1.748218,3.66452 2.17987,4.265074 0.188193,0.261713 0.515097,0.581972 0.726385,0.712015 0.479188,0.295041 1.450036,0.465275 2.167442,0.38425 0.54345,-0.06295 0.540855,-0.06428 -0.400175,-0.339617 -1.487696,-0.438222 -1.940786,-0.917203 -3.089294,-3.283388 -3.357824,-6.915298 -3.365975,-6.938758 -3.034232,-9.115522 0.124032,-0.816083 0.349809,-1.739373 0.501456,-2.051371 0.276338,-0.567037 0.276871,-0.567131 1.403695,-0.526393 0.619697,0.02269 1.75537,-0.07335 2.523295,-0.213298 2.128705,-0.388447 4.552941,-0.958565 4.413091,-1.037132 -0.0108,-0.0038 -0.027,-0.0057 -0.0496,-0.02004 z"
             style="fill:#220055;fill-opacity:1;stroke-width:0.149888"
             sodipodi:nodetypes="cccccccccccscccccccccccccccccsscccccccccsccccccccccssccsccscccscccccccccccccccccccccccccccccccsccccccccccccc" /></g></g></g></g></svg>
